<svg version="1.1"
   xmlns="http://www.w3.org/2000/svg" xmlns:xlink="http://www.w3.org/1999/xlink" xmlns:a="http://ns.adobe.com/AdobeSVGViewerExtensions/3.0/"
   x="0px" y="0px" width="260px" height="302px" viewBox="0 0 260 302" enable-background="new 0 0 260 302" xml:space="preserve">
<defs>
</defs>
<polygon points="0,75.5 130,0 260,75.5 260,226.5 130,302 0,226.5 "/>
<path fill="#FFFFFF" d="M64.6,198.9v-95.7h21v95.7H64.6z"/>
<path fill="#FFFFFF" d="M160.4,200.8c-27.5,0-50-22.4-50-49.8c0-27.5,22.5-49.8,50-49.8c27.4,0,50.2,22.2,50.2,49.8
  C210.6,178.4,187.8,200.8,160.4,200.8z M160.4,121.4c-16.3,0-29,13.1-29,29.6c0,16.3,12.7,29.6,29,29.6c16.4,0,29.3-13.3,29.3-29.6
  C189.7,134.6,176.8,121.4,160.4,121.4z"/>
</svg>
