<?xml version="1.0" encoding="utf-8"?>
<!-- Generator: Adobe Illustrator 15.0.0, SVG Export Plug-In . SVG Version: 6.00 Build 0)  -->
<!DOCTYPE svg PUBLIC "-//W3C//DTD SVG 1.1//EN" "http://www.w3.org/Graphics/SVG/1.1/DTD/svg11.dtd">
<svg version="1.1" id="Layer_1" xmlns="http://www.w3.org/2000/svg" xmlns:xlink="http://www.w3.org/1999/xlink" x="0px" y="0px"
	 width="612px" height="792px" viewBox="0 0 612 792" enable-background="new 0 0 612 792" xml:space="preserve">
<g>
	<polygon fill="#FFFFFF" stroke="#D1D3D4" stroke-miterlimit="10" points="387.057,442.348 306.342,488.946 225.628,442.348 
		225.628,349.145 306.342,302.544 387.057,349.145 	"/>
	<polygon fill="#B4B4B4" points="380.141,438.354 306.344,480.957 232.548,438.354 232.548,353.139 306.344,310.531 
		380.141,353.139 	"/>
	<g>
		<g>
			<polygon fill="#DC2226" points="306.344,473.232 239.237,434.492 239.237,357.001 306.344,318.258 			"/>
			<polygon fill="#A51E22" points="306.342,473.232 373.451,434.492 373.451,357.001 306.342,318.258 			"/>
		</g>
		<g>
			<path fill="#F3F3F3" d="M325.152,403.23l-18.815,8.797h-19.831l-9.319,23.315l-17.338,0.319l46.488-103.424L325.152,403.23
				L325.152,403.23z M323.334,398.801L306.461,365.4l-13.839,32.825h13.715L323.334,398.801L323.334,398.801z"/>
			<path fill="#B4B4B4" d="M306.337,332.238l0.124,33.162l15.703,32.85h-15.791l-0.036,13.757l21.836,0.021l10.208,23.642
				l16.588,0.308L306.337,332.238z"/>
		</g>
	</g>
</g>
</svg>
