<?xml version="1.0" encoding="utf-8"?>
<!-- Generator: Adobe Illustrator 15.0.0, SVG Export Plug-In . SVG Version: 6.00 Build 0)  -->
<!DOCTYPE svg PUBLIC "-//W3C//DTD SVG 1.1//EN" "http://www.w3.org/Graphics/SVG/1.1/DTD/svg11.dtd">
<svg version="1.1" id="Layer_1" xmlns="http://www.w3.org/2000/svg" xmlns:xlink="http://www.w3.org/1999/xlink" x="0px" y="0px"
	 width="612px" height="792px" viewBox="0 0 612 792" enable-background="new 0 0 612 792" xml:space="preserve">
<g>
	<polygon fill="#FFFFFF" stroke="#D1D3D4" stroke-miterlimit="10" points="386.895,442.607 306.18,489.206 225.465,442.607 
		225.465,349.406 306.18,302.804 386.895,349.406 	"/>
	<g>
		<g>
			<polygon fill="#3D6A92" points="380.556,438.945 306.179,481.889 231.804,438.945 231.804,353.063 306.179,310.125 
				380.556,353.063 			"/>
			<polygon stroke="#000000" stroke-miterlimit="10" points="374.83,435.643 306.179,475.276 237.528,435.643 237.528,356.369 
				306.179,316.734 374.83,356.369 			"/>
		</g>
		<g>
			<g>
				<path fill="#3D6A92" d="M299.064,337.658c-1.81,0.033-4.071,1.163-5.69,0.773c-0.647-0.155-1.435-0.223-2.208-0.182
					c-0.013,0-0.029,0-0.04,0c-0.789,0.048-1.553,0.211-2.121,0.559c-0.022,0.015-0.05,0.028-0.074,0.042
					c-0.022,0.031-0.045,0.062-0.073,0.088c-0.751,0.753-2.413,0.822-3.185,1.595c-0.632,0.632-1.215,1.84-1.912,2.923
					c-0.008,0.008-0.011,0.021-0.016,0.031c-2.48,2.891-4.458,6.446-5.157,9.351c-0.575,2.39-0.567,5.615-1.51,7.99
					c-0.265,0.662-1.359,4.342-0.508,5.057c0.576,0.487,3.042,0.859,3.766,0c0.39-0.464,3.966-1.62,5.083-2.948
					c1.316-1.562,1.996-4.263,2.898-6.533c0.145-0.364,0.328-0.746,0.542-1.127c0.512,0.994,0.919,1.802,1.132,2.3
					c0.447,1.037,0.94,2.469,1.348,3.998c-0.884,1.355-0.516,3.208,0.124,4.056c-2.587,0.806-1.355,3.587-1.454,3.685
					c-0.171,0.172-0.71,0.399-0.928,0.617c-0.269,0.269-0.311,0.832-0.311,1.239c0,0.393,0.05,0.742,0.124,1.053
					c-2.354,5.92-4.574,13.326-7.38,17.322c-0.809,0.368-1.637,0.685-2.605,0.877c-1.885,0.473-6.654,1.408-10.672,2.759
					c-0.173,0.233-0.378,0.459-0.606,0.689c-0.397,0.398-1.194,0.398-1.592,0.798c-0.31,0.309-1.276-0.038-1.587,0.27
					c-0.917,0.918-2.274,1.395-3.718,2.117c-0.158,0.081-0.673-0.121-0.794,0c-0.658,0.657-1.833,1.036-2.391,1.594
					c-1.092,1.093-2.008,2.277-3.187,3.458c-1.171,1.169,1.217,4.392,1.594,4.769c1.106,1.105,3.138,1.282,4.243,2.39
					c0.466,0.467,2.026-0.158,2.586,0.212c0.146,0.022,0.274,0.047,0.362,0.09c1.631,0.814,4.827,1.419,6.757,2.062
					c2.661,0.888,4.769,3.256,7.512,3.94c2.088,0.521,4.462,0.8,6.567,1.502c0.881,0.293,1.952,0.091,2.808,0.379
					c1.602,0.531,3.047,1.194,4.508,1.682c0.505,0.169,1.173-0.128,1.692,0c1.164,0.291,2.423,0.375,3.562,0.755
					c2.026,0.677,4.73-0.675,6.758,0c1.334,0.446,9.65-0.267,10.318-0.937c0.492-0.49,2.361,0.133,3.006-0.187
					c0.559-0.281,2.254-0.008,2.626-0.381c0.962-0.959,2.936-1.001,4.312-1.691c0.577-0.286,1.467,0.115,2.067-0.185
					c0.345-0.176,1.047,0.038,1.806,0.369c1.446-0.032,2.561-0.185,4.007-0.185c1.721,0,4.095-0.814,6.609-2.052
					c2.784-0.626,6.187-1.351,6.345-1.51c1.211-1.209,4.426-0.859,5.625-2.059c0.85-0.852,1.941-1.195,2.816-2.069
					c0.779-0.779,1.85-1.672,2.972-2.613c0.195-0.543,0.696-1.058,1.158-1.518c0.192-0.192,1.56-4.191,1.313-4.688
					c-0.453-0.902-1.201-1.653-2.062-2.347c-0.266-0.09-0.471-0.185-0.564-0.279c-0.922-0.92-3.125-1.062-3.941-1.879
					c-1.316-1.316-3.295-2.499-5.657-3.292c-0.494-0.247-0.956-0.506-1.288-0.839c-0.42-0.42-2.852-0.958-3.564-1.313
					c-0.382-0.189-1.215,0.104-1.5-0.181c-0.695-0.692-3.6-1.188-5.699-1.855c-0.307,0.021-0.797-0.214-0.886-0.304
					c-0.063-0.063-1.69-0.304-2.226-0.838c-0.061-0.06-0.278-2.239-0.278-2.511c0-0.101-0.243-0.503-0.099-0.648
					c0.021-0.021,0.044-0.05,0.065-0.073c-0.972-5.988-1.716-12.599-2.414-13.187c-1.038-0.874-1.616-5.702-2.759-6.667
					c-1.195-1.005-1.941-2.104-2.865-2.962c0-0.002,0-0.007,0-0.009c-0.346-1.907-1.006-4.053-1.215-4.229
					c-0.338-0.284,0.175-1.579-0.164-1.863c-1.053-0.887-2.427-6.104-3.416-6.936c-1.293-1.09-1.931-2.783-3.16-3.819
					c-3.036-2.558-8.082-6.363-13.661-6.076c-0.24-0.065-0.474-0.146-0.698-0.236C299.881,337.699,299.48,337.651,299.064,337.658
					L299.064,337.658z"/>
				<path fill="#E6B35A" stroke="#FFFFFF" stroke-width="1.1795" stroke-opacity="0" d="M297.86,370.785
					c-0.47-0.084-0.929-0.089-1.287,0.03c-0.599,0.199-1.564-0.273-2.189-0.159c-2.363,0.425-4.215,1.066-4.534,1.862
					c3.506-1.008,7.4,1.237,8.995,3.368c0.662,0.889-0.358,2.23,0,3.317c0.083,0.245,0.148,1.822-0.135,2.035
					c-0.593,0.445-0.535,1.991-1.026,2.698c-1.154,1.665-2.162,2.879-3.143,4.292c-1.012,1.458-3.714,1.748-5.226,2.252
					c-0.334,0.108-0.752-0.121-1.104-0.003c-0.084,0.026-0.182,0.032-0.278,0.02c0.034,0.037,0.074,0.074,0.104,0.112
					c0.125,0.168,0.747,0.007,0.927,0.133c1.174,0.814,5.815,0.501,7.103,0.075c0.8-0.265,1.543-0.66,2.344-0.923
					c1.028-0.343,2.039-1.938,2.776-2.762c2.536-2.828,3.695-7.726,2.44-11.507c-0.631-1.899-2.281-3.037-3.686-4.013
					C299.46,371.278,298.639,370.925,297.86,370.785L297.86,370.785z"/>
				<path fill="#E6B35A" stroke="#FFFFFF" stroke-width="1.1795" stroke-opacity="0" d="M303.517,367.138
					c-0.151-0.009-0.172,1.472-0.184,2.177c-0.072,0.003-0.067,0.093-0.048,0.192c-0.763,0.34-2.422,1.017-2.295,1.151
					c0.005,0.005,0.006,0.008,0.01,0.01c-0.061,0.005-0.123,0.023-0.127,0.107c-0.006,0.108,0.22,0.007,0.329,0.01
					c0.178,0.006,1.723,0.576,2.333,0.833c0.078,0.582,0.3,0.931,0.3,1.599c0,0.416,0.083,0.985,0.107,0.985
					c0.009,0,0.026-0.012,0.037-0.018c0.02,0.073,0.042,0.114,0.07,0.087c0.121-0.112,0.34-0.416,0.561-0.756
					c0.01-0.014,0.021-0.022,0.028-0.038c0.392-0.484,0.838-1.104,1.222-1.665c0.74,0.108,1.417,0.193,1.587,0.193
					c0.082,0,2.895,0.484,2.082-0.33c-0.049-0.048-0.107-0.091-0.164-0.136c0.018-0.015,0.027-0.029,0.027-0.047
					c0.008-0.157-1.562-0.88-1.818-1.154c-0.125-0.131-0.305-0.215-0.428-0.348c-0.033-0.035,0.029-0.131,0.127-0.271v-0.01
					c0.219-0.242,0.45-0.492,0.619-0.66c0.08-0.078,0.537-0.931,0.105-0.874c-0.293,0.038-1.243,0.098-2.488,0.463
					c0,0-0.335-0.44-0.338-0.44c-0.269-0.107-1.035-1.044-1.655-1.065V367.138z"/>
				<path fill="#E6B35A" stroke="#FFFFFF" stroke-width="0.8034" stroke-opacity="0" d="M296.49,366.915
					c-0.09,0.043-0.227,0.219-0.269,0.129C296.177,366.955,296.58,366.872,296.49,366.915c-0.269,0.129-1.303,1.06-0.923,1.354
					c0.315,0.242,1.478-0.21,1.972-0.038c0.074,0.028,0.893,1.284,1.021,0.917c0.21-0.601-0.049-1.618-0.044-1.637
					c0.097-0.275,0.854-0.161,1.039-0.252c0.153-0.073,0.463-0.204,0.505-0.325c0.011-0.033,0.021-0.133,0.034-0.101
					c0.015,0.024-0.202-0.185-0.463-0.274c-0.392-0.136-0.786-0.052-1.065-0.146c-0.129-0.049,0.027-0.806-0.019-0.903
					c-0.155-0.318-0.251-0.694-0.226-0.637c0.077,0.157-0.33,0.154-0.437,0.292c-0.133,0.173-0.484,0.763-0.712,0.758
					c-0.272-0.003-1.361-0.262-1.435-0.053C295.731,365.883,296.416,366.56,296.49,366.915L296.49,366.915z"/>
				<path fill="#E6B35A" stroke="#FFFFFF" stroke-width="0.8034" stroke-opacity="0" d="M307.018,377.482
					c-0.071-0.066-0.285-0.129-0.218-0.202C306.868,377.207,307.091,377.552,307.018,377.482c-0.217-0.202-1.461-0.824-1.596-0.363
					c-0.112,0.383,0.734,1.299,0.753,1.821c0.006,0.079-0.87,1.3-0.479,1.284c0.633-0.022,1.488-0.636,1.507-0.636
					c0.293-0.012,0.461,0.734,0.612,0.874c0.124,0.117,0.36,0.356,0.488,0.352c0.036-0.003,0.13-0.027,0.104-0.005
					c-0.019,0.022,0.098-0.254,0.087-0.529c-0.016-0.413-0.238-0.751-0.25-1.048c-0.006-0.135,0.759-0.268,0.833-0.347
					c0.238-0.261,0.554-0.485,0.511-0.44c-0.12,0.128-0.265-0.252-0.433-0.302c-0.211-0.062-0.887-0.174-0.965-0.389
					c-0.098-0.253-0.252-1.362-0.474-1.355C307.705,376.401,307.324,377.286,307.018,377.482L307.018,377.482z"/>
				<path fill="#E6B35A" stroke="#FFFFFF" stroke-opacity="0" d="M330.968,387.304c-0.214,0.729-1.543,3.068-2.103,3.629
					c-0.72,0.72-1.342,1.47-1.971,2.103c-0.447,0.446-1.725,1.593-2.103,1.969c-0.821,0.821-1.301,0.515-2.231,1.446
					c-0.462,0.461-1.393,0.468-1.84,0.919c-0.407,0.406-3.666,0.651-4.466,1.05c-0.193,0.098-0.773-0.146-0.92,0
					c-0.575,0.575-5.119,0.785-5.256,0.923c-0.692,0.692-2.545-0.107-3.546,0.391c-0.886,0.444-2.644,0.134-3.677,0.134
					c-0.574,0-2.095-0.012-3.662-0.05c-0.371-0.053-0.661-0.095-0.675-0.084c-0.007,0.01-0.043,0.045-0.064,0.066
					c-0.294-0.01-0.578-0.021-0.861-0.032c-0.178-0.067-0.367-0.107-0.519-0.034c-0.006,0.005-0.016,0.005-0.023,0.01
					c-1.224-0.06-2.221-0.147-2.473-0.271c-1.027-0.515-2.13-0.659-3.414-0.659c-2.008,0-6.457-2.371-8.012-3.151
					c-0.239-0.117-0.9-0.812-1.257-1.002c-0.002-0.135-0.008-0.263-0.058-0.311c-0.366-0.366-0.526-1.186-0.788-1.708
					c-0.11-0.219,0-1.016,0-0.919c0,0.004,0.263-1.051,0.262-1.051c-0.224,0-1.403,1.532-1.839,1.97
					c-0.004,0.002,0.01,0.028,0.016,0.05c-0.246,0.34-0.418,0.843-0.418,1.607c0,2.603,1.435,2.743,2.784,4.087
					c0.329,0.334,1.037,0.115,1.297,0.372c0.263,0.263,0.649,0.498,1.106,0.704c-0.57,0.338-1.674,0.418-2.036,0.783
					c-0.353,0.351-1.991,1.367-2.602,1.674c-0.114,0.057-0.669,0.121-0.739,0.189c-3.468,3.47-7.387,5.71-10.591,8.914
					c-0.269,0.271-0.369,3.793-0.369,4.458c0,1.161-0.394,2.39,0.369,3.152c0.322,0.322,1.392,0.092,1.676,0.38
					c0.06,0.062,0.838,0.639,0.927,0.549c0.34-0.34-0.188-2.111-0.188-2.594c0-2.537,0.274-5.103,1.862-6.691
					c3.066-3.066,7.438-4.465,10.214-7.242c0.816-0.816,2.311-1.25,3.398-2.142c-0.038,0.262,0.007,0.509,0.198,0.713
					c0.127,0.137,0.578-0.137,0.739-0.048c1.092,0.577,4.416,1.816,5.392,0.624c0.179,0.338,0.319,0.68,0.495,0.853
					c0.651,0.651,0.142,3.796-0.189,4.459c-1.248,2.496-1.907,9.704-2.972,10.771c-0.185,0.186,0.22,1.933,0.371,2.232
					c0.388,0.774-0.285,2.501,0,2.783c0.277,0.277,0.098,1.02,0.377,1.297c0.252,0.254,1.413-0.064,1.666,0.19
					c0.099,0.1,1.423,0.997,1.676,0.745c0.209-0.209-0.574-2.624-0.748-2.971c-0.149-0.3,0.403-5.798,0.558-5.952
					c0.216-0.216-0.217-1.08,0-1.296c0.422-0.424,0.926-9.169,0.926-10.403c0-0.21,0.535-1.512,0.191-1.856
					c-0.004-0.002-0.309-0.704-0.723-1.387c0.612,0.045,1.127,0.119,1.281,0.271c0.272,0.272,5.768,0,6.682,0
					c3.629,0,9.338-0.283,11.517-0.749c0.87-0.186,2.931-0.346,4.089-0.925c0.672-0.338,3.042-0.568,3.457-0.675
					c0.885-0.228,3.729-0.912,4.522-1.709c0.59-0.588,2.606-2.632,3.352-3.005c0.837-0.417,1.257-1.903,1.747-2.593
					c0.064-0.51,1.436-1.843,1.166-2.38C331.645,388.637,331.453,387.351,330.968,387.304L330.968,387.304z"/>
			</g>
			<g>
				<path fill="#E6B35A" stroke="#FFFFFF" stroke-opacity="0" d="M276.458,427.745c-0.318,0.005-0.615,0.059-0.851,0.178
					c-0.527,0.265-1.232,0.135-1.757,0.399c-0.508,0.253-0.765,0.598-1.176,0.876c0.048-0.146,0.096-0.285,0.146-0.43
					c-0.057,0.066-0.107,0.134-0.167,0.191c-0.06,0.058-0.085,0.155-0.096,0.27c-0.011,0.113-0.005,0.244,0.004,0.377
					c0.006,0.131,0.016,0.266,0.01,0.378c-0.004,0.083-0.032,0.138-0.058,0.19c0.889-0.423,2.072-0.882,2.456-0.499
					c0.319,0.318,0.46,0.708,0.798,1.043c0.052,0.052,0.171,0.075,0.29,0.108c0.066,0,0.129-0.011,0.175-0.035
					c0.027-0.015,0.098,0.005,0.121-0.021c0.072-0.069,0.099-0.135,0.179-0.214c0.061-0.062,0.122-0.229,0.122-0.321
					c0-0.1-0.073-0.292-0.144-0.362c-0.022-0.022-0.175-0.135-0.175-0.157c0-0.119,0.407,0.168,0.416,0.178
					c0.029,0.028-0.005,0.111,0.022,0.14c0.037,0.038-0.007,0.105,0.021,0.162c0.093,0.185-0.071,0.485-0.162,0.575
					c-0.109,0.11,0.138,0.048,0.18,0c0.042-0.039,0.083-0.122,0.12-0.157c0.004-0.005-0.003-0.057,0-0.057
					c0.037,0,0.035,0.302,0,0.336c-0.109,0.11-0.211,0.202-0.387,0.24c0.412,0.307,0.997,0.561,1.298,0.862
					c0.084,0.085,0.585-0.025,0.639-0.081c0.381-0.38,0.655-1.054,1.12-1.518c0.145-0.143-0.116-0.836-0.159-0.881
					c-0.178-0.176-0.143-0.619-0.399-0.88C278.581,428.178,277.412,427.737,276.458,427.745L276.458,427.745z"/>
				<path fill="#E6B35A" stroke="#FFFFFF" stroke-opacity="0" d="M273.016,427.003c-0.021,0.005-0.04,0.018-0.056,0.036
					c-0.011,0.01-0.052-0.009-0.062,0c-0.061,0.062-0.166,0.086-0.238,0.159c-0.204,0.201-0.381,0.411-0.588,0.622
					c-0.983,0.354-1.899,0.656-3.01,0.787c0.082,0.007,0.167,0.021,0.253,0.035c-0.179,0.017-0.461,0.008-0.551,0.053
					c-0.027,0.014-0.162,0.054-0.186,0.057c0.046-0.005,0.202,0.002,0.226,0.002c0.14,0,0.288,0.043,0.42,0.043
					c0.197,0,0.431-0.007,0.656-0.01c0.373,0.126,0.718,0.3,0.963,0.502c0.141,0.115-0.027,0.907-0.058,1.05
					c-0.149,0.653,0.398,2.539,0.052,2.959c-0.153,0.188,0.082,0.723,0.141,1.092c0.18,0.139,0.342,0.585,0.391,0.685
					c0.048,0.094,0.17,0.208,0.17,0.312c0,0.014-0.229-0.231-0.253-0.254c-0.036-0.036-0.212-0.268-0.337-0.385
					c-0.014,0.086-0.024,0.206-0.028,0.354c0.075,0.076,0.157,0.152,0.194,0.227c0.076,0.15,0.153,0.295,0.253,0.396
					c0.087,0.088-0.175-0.06-0.226-0.083c-0.031-0.018-0.121-0.09-0.222-0.164c0.007,0.817,0.087,1.962,0.121,2.299
					c0.07,0.708-0.027,1.381-0.03,1.366c-0.001-0.018-0.341,0.417-0.57,0.7c-0.341,0.416-0.75,1.064-1.167,1.6
					c0.179-0.182,0.41-0.402,0.632-0.502c0.517-0.231,1.779-1.221,2.533-1.743c0.166,0.118,0.518-0.416,1.036,0.104
					c0.069,0.066,0.279,0.72,0.238,0.72c-0.367,0-0.433,0.363-0.238,0.558c0.101,0.101,0.199,0.056,0.277-0.052
					c0.079-0.23,0.16-0.534,0.017-0.68c-0.023-0.021,0.024-0.115,0-0.14c-0.128-0.128-0.074-0.383-0.225-0.538
					c-0.055-0.052-0.281-0.173-0.337-0.297c-0.003-0.002-0.009-0.006-0.013-0.009c-0.043-0.042-0.133-0.036-0.195-0.057
					c-0.048-0.062-0.144-0.178-0.053-0.415c0.159-0.417,0.203-1.18,0.159-1.623c-0.014-0.148,0.005-0.466,0.039-0.83
					c0-0.003,0-0.003,0-0.005c0.057-0.215,0.146-0.45,0.223-0.605c0.06-0.12-0.011-0.384,0.083-0.477
					c0.047-0.048,0.04-0.15,0.036-0.254c-0.261,0.066-0.569,0.144-0.687,0.178c0.015-0.014,0.029-0.029,0.038-0.038
					c0.033-0.033,0.142-0.057,0.198-0.084c0.188-0.096,0.361-0.197,0.468-0.247c0.008-0.016,0.014-0.024,0.022-0.034
					c0.17-0.168,0.021-0.686-0.151-1.05c-0.006-0.095-0.006-0.186,0.008-0.272c0.077-0.529,0.071-1.072,0.058-1.613
					c-0.027-0.002-0.058-0.005-0.094-0.005c-0.016,0-0.351-0.02-0.435-0.004c0.021-0.013,0.083-0.046,0.15-0.081
					c0.039-0.019,0.223-0.041,0.374-0.06c-0.001-0.096-0.005-0.192-0.007-0.289c-0.264,0.02-0.662,0.054-0.619,0.012
					c0.066-0.066,0.437-0.064,0.536-0.115c0.01-0.005,0.04-0.019,0.08-0.029c-0.003-0.324,0.001-0.645,0.03-0.965
					c0.033-0.021,0.073-0.043,0.108-0.064c0.022-0.056,0.043-0.109,0.039-0.192c-0.006-0.112-0.025-0.245-0.046-0.376
					c-0.021-0.13-0.041-0.262-0.043-0.377c-0.002-0.114,0.02-0.212,0.071-0.275c0.054-0.064,0.099-0.136,0.144-0.204
					c0.017-0.072,0.035-0.145,0.051-0.217c0.058-0.259-0.096-0.636-0.004-0.881c0.015-0.04,0.138-0.219,0.134-0.255
					c-0.001-0.014-0.013-0.019-0.033-0.014c-0.105,0.014-0.417,0.197-0.625,0.319C273.298,427.193,273.144,426.975,273.016,427.003
					L273.016,427.003z M272.797,434.777c-0.022,0.021-0.042,0.035-0.042,0.015C272.755,434.79,272.772,434.787,272.797,434.777
					L272.797,434.777z"/>
				<path fill="#E6B35A" stroke="#FFFFFF" stroke-opacity="0" d="M263.82,418.705c-0.152,0.017-0.304,0.043-0.449,0.093
					c-0.969,0.323-1.861,0.727-2.795,1.038c-0.354,0.116-0.765,0.503-1.038,0.638c-1.128,0.563-2.134,1.172-3.185,1.756
					c-0.145,0.036-0.277,0.056-0.329,0.003c-0.849-0.852,0.813-1.328,0.559-1.842c-0.397-0.789-1.664,0.223-1.841,0.402
					c-0.167,0.165-0.158,0.545-0.158,0.878c0,0.062-0.041,0.359,0,0.396c0.186,0.188,0.177,0.5,0.397,0.723
					c0.388,0.385,1.102,0.357,1.594,0.166c0.005,0.007,0.01,0.015,0.013,0.024c0.211-0.101,0.371-0.173,0.392-0.19
					c0.906-0.748,1.724-1.064,2.795-1.601c0.282-0.138,1.476-0.896,1.757-1.035c0.378-0.19,0.953-0.293,1.521-0.402
					c0.105-0.105,0.241-0.171,0.401-0.201C263.576,419.266,263.695,418.987,263.82,418.705L263.82,418.705z M265.341,427.303
					c-0.551,0.585-1.144,0.977-1.571,1.077c0.011,0.009,0.025,0.014,0.036,0.018c-0.373,0.091-0.726,0.192-0.914,0.383
					c-0.037,0.038-0.188-0.023-0.238,0c-0.984,0.491-2.354,0.356-3.037,1.037c-0.42,0.422,2.765-0.397,2.797-0.397
					c0.274,0,0.873-0.12,1.115-0.24c0.119-0.06,0.427,0,0.562,0c0.893,0,1.396,0.301,2.236,0.72c0.257,0.128,0.33,0.408,0.479,0.558
					c0.293,0.292,0.646,0.572,0.877,1.038c0.071,0.139-0.032,0.687,0.083,0.8c0.723,0.725-0.641,4.155-1.12,4.632
					c-0.557,0.558-1.187,1.107-1.677,1.597c-0.217,0.218-0.57,0.252-0.798,0.479c-0.117,0.118-0.454,0.068-0.642,0.16
					c-0.635,0.32-1.258,0.312-1.917,0.643c-0.178,0.087-0.535,0.12-0.95,0.138l-0.846-0.186c-0.257,0.164,0.197-0.135-0.1,0.043
					c-0.085,0.052-0.195,0.18-0.319,0.18c-0.056,0-0.381-0.14-0.42-0.102c-0.039,0.041-0.154,0.057-0.199,0.102l-0.183,0.178
					c-0.164,0.164,0.063,0.524,0.3,0.524c0.111,0,0.131-0.215,0.182-0.265c0.107-0.107,0.348-0.177,0.519-0.177
					c0.006,0-0.023,0.027-0.023,0.036v0.202c0,0.079-0.007,0.376-0.038,0.438c-0.027,0.056-0.012,0.126-0.039,0.181
					c-0.01,0.02-0.043,0.06-0.021,0.06c0.077,0,0.061-0.58,0.382-0.58c0.207,0,0.306,0.155,0.476,0.24
					c0.085,0.043,0.2,0.04,0.283,0.081c0.051,0.026,0.106,0.035,0.158,0.062c0.017,0.008,0.099,0.064,0.099,0.06
					c0-0.062-0.345-0.219-0.452-0.438c0.643-0.135,1.345-0.01,1.992-0.138c1.07-0.214,2.056-0.441,3.061-0.937
					c0.005,0.038,0.015,0.072,0.035,0.094c0.027,0.023,0.229-0.085,0.258-0.101c0.215-0.108,0.846-0.105,1.058,0
					c0.008,0.002,0.11,0.002,0.209,0.007c-0.073-0.024-0.138-0.059-0.148-0.065c-0.028-0.029-0.37-0.093-0.481-0.202
					c-0.031-0.033-0.054-0.092-0.066-0.167c1.956-1.937,3.812-3.329,3.184-6.459c-0.167-0.844-0.322-1.758-0.8-2.475
					c-0.793-1.188-2.377-0.946-2.921-1.404c-0.105-0.024-0.218-0.04-0.261-0.101c-0.003,0-0.017,0-0.017,0
					c0-0.002,0.008-0.007,0.01-0.01c-0.008-0.013-0.01-0.027-0.01-0.047C265.525,428.205,266.591,427.987,265.341,427.303
					L265.341,427.303z M267.035,439.508c0.086,0.033,0.185,0.058,0.212,0.033C267.265,439.521,267.152,439.513,267.035,439.508
					L267.035,439.508z"/>
				<path fill="#E6B35A" stroke="#FFFFFF" stroke-opacity="0" d="M263.841,419.073c-0.133-0.007-0.451,0.186-0.574,0.186
					c-0.444,0-3.193,1.385-3.446,1.639c-0.14,0.14-0.195,0.702-0.283,0.791c-0.245,0.244-0.387,0.886-0.547,1.481
					c-0.111,0.271-0.185,0.577-0.3,0.694c-0.041,0.04-0.022,0.16-0.056,0.197c-0.104,0.104-0.292,0.175-0.368,0.253
					c-0.028,0.027-0.24,0.048-0.312,0.084c-0.073,0.038-0.156,0.071-0.18,0.078c0.05-0.005,0.202,0.031,0.208,0.035
					c0.047,0.024,0.132,0.018,0.17,0.058c0.052,0.052,0.133,0.225,0.197,0.225c0.538,0-0.186-0.306,0.285-0.335
					c0.181,0.186,0.74,1.327,0.873,1.885c0.001,0.007,0.002,0.015,0.004,0.019c0.008,0.059,0.014,0.128,0.021,0.197
					c0.003,0.129,0.014,0.244,0.024,0.349c0.064,1.399-0.156,3.735-0.156,4.554c0,0.554-0.078,2.396,0.083,2.714
					c0.071,0.146-0.03,0.376-0.083,0.482c-0.281,0.562,0.238,3.043-0.131,3.559c0.071,0.102,0.123,0.219,0.21,0.302
					c0.037,0.037,0.331,1.128,0.485,1.714c0.692-0.007,1.39,0.005,1.774-0.187c0.402-0.203,0.88-0.328,1.242-0.509
					c0.079-0.038,0.424-0.207,0.611-0.271c-0.259-0.036-0.852-0.238-0.894-0.238c-0.112,0-0.243-0.03-0.385-0.08
					c0.016-0.005,0.03-0.01,0.043-0.012c-0.486-0.326-0.849-1.141-0.721-1.765c-0.234-1.302-0.063-3.335-0.063-4.484
					c0-1.226,0.141-2.503,0.159-3.793c-0.098,0.028-0.194,0.048-0.218,0.023c-0.057-0.058-0.083-0.544-0.121-0.843
					c-0.043-0.096-0.07-0.167-0.079-0.177c-0.11-0.105-0.189-0.266-0.254-0.394c-0.007-0.014-0.104-0.169-0.084-0.169
					c0.053,0,0.239,0.267,0.282,0.312c0.012,0.009,0.022,0.017,0.036,0.021c0.003,0,0.004,0,0.005,0
					c0.055,0.007,0.098,0.012,0.102,0.007c0.076-0.076-0.057-0.258-0.057-0.283c0-0.063,0.01-0.151,0.019-0.246
					c0.081,0.066,0.159,0.097,0.207,0.047c0.212-0.208-0.169-1.157-0.282-1.268c-0.017-0.02,0-0.143,0-0.172
					c0-0.083-0.019-0.178-0.043-0.271c0.003-0.171,0.014-0.332,0.037-0.467c0.044,0.05,0.089,0.101,0.12,0.115
					c0.132,0.069,0.188-0.209,0.226-0.28c0.103-0.204-0.055-0.617-0.254-1.014c-0.028-0.789-0.113-1.841-0.161-2.322
					c-0.002,0,0-0.004,0-0.004c0.024-0.126,0.058-0.257,0.133-0.331c0.081-0.079,0.226,0,0.34,0c-0.2,0.125,0.154,0.579,0.451,0.282
					c0.479-0.48,0.789-1.297,1.243-1.751c0.049-0.05,0.557-0.572,0.507-0.622C263.876,419.08,263.86,419.073,263.841,419.073
					L263.841,419.073z M263.594,439.267c0.071,0.012,0.124,0.01,0.124-0.013C263.717,439.233,263.667,439.243,263.594,439.267
					L263.594,439.267z M257.775,424.477c-0.007,0-0.017,0.003-0.017,0.007C257.758,424.483,257.772,424.479,257.775,424.477
					L257.775,424.477z"/>
				<path fill="#E6B35A" stroke="#FFFFFF" stroke-opacity="0" d="M257.207,434.814c-0.042,0.011-0.157,0.105-0.183,0.12
					c-0.147,0.073-0.344,0.116-0.451,0.223c-0.123,0.123-0.286,0.175-0.424,0.312c-0.095,0.096-0.159,0.219-0.254,0.311
					c-0.037,0.036,0.112,0.338,0.14,0.397c0.057,0.113,0.056,0.251,0.114,0.368c0.053,0.104,0.078,0.499,0.14,0.562
					c0.06,0.059,0.03,0,0.058-0.029c0.013-0.014,0.051,0.063,0.085,0.029c0.068-0.069,0.228-0.031,0.339-0.083
					c0.193-0.098,0.638,0.02,0.847-0.086c0.099-0.05,0.235-0.083,0.374-0.104c0.009,0.007,0.016,0.014,0.026,0.022
					c-0.002,0.002-0.003,0.005-0.005,0.007c0.021,0.013,0.04,0.029,0.06,0.045c0.054,0.051,0.109,0.094,0.138,0.11
					c0.002,0,0.003,0,0.003,0c0.121,0.1,0.232,0.212,0.369,0.347c0.196,0.195,0.509,1.589,0.556,1.637
					c0.203,0.204,0.219,0.857,0.4,1.038c0.104,0.104,0.15,0.231,0.239,0.322c0.112,0.109,0.307,0.146,0.399,0.24
					c0.119,0.117,0.748-0.628,0.84-0.723c0.041-0.038,0.095-0.18,0.121-0.197c0.06-0.035,0.165-0.016,0.196-0.08
					c0.01-0.017-0.007-0.025-0.031-0.03l-1.005-1.05c-0.189,0-0.38-0.86-0.558-1.039c-0.54-0.536-0.924-0.984-1.379-1.455
					c-0.083-0.147-0.153-0.309-0.29-0.447c-0.132-0.13-0.329-0.261-0.424-0.45c-0.022-0.046-0.272-0.31-0.354-0.29
					c-0.004,0-0.011,0.002-0.013,0.006c-0.006,0.005-0.01,0.013-0.015,0.017c-0.012-0.014-0.025-0.027-0.042-0.045
					C257.219,434.817,257.214,434.814,257.207,434.814L257.207,434.814z"/>
				<path fill="#E6B35A" stroke="#FFFFFF" stroke-width="1.0262" stroke-opacity="0" d="M266.075,426.203
					c-0.021,0.028-0.077,0.098-0.087,0.116c-0.013,0.024-0.032,0.052-0.047,0.079c0.02-0.027,0.042-0.055,0.067-0.079
					C266.028,426.299,266.056,426.236,266.075,426.203L266.075,426.203z M265.941,426.398c-0.205,0.247-0.322,0.587-0.533,0.8
					c-0.163,0.165-0.29,0.385-0.197,0.479l0.137-0.1c-0.036-0.07,0.025-0.149,0.06-0.221c0.021-0.043,0.082-0.169,0.082-0.121
					c0,0.076,0.256,0.163,0.359,0.062c0.138-0.137-0.142-0.317-0.041-0.52c0.026-0.052,0.06-0.138,0.06-0.197
					C265.868,426.523,265.905,426.457,265.941,426.398L265.941,426.398z M264.67,428.043c-0.293,0.051-0.583,0.146-0.836,0.252
					c-0.254,0.024-0.509,0.049-0.746,0.132c-0.969,0.339-1.862,0.765-2.796,1.09c-0.352,0.126-0.765,0.533-1.038,0.675
					c-0.552,0.293-1.073,0.594-1.589,0.897c-0.057,0.133-0.068,0.272,0.008,0.428c0.065,0.133,0.142,0.214,0.224,0.268
					c0.492-0.284,1.006-0.524,1.597-0.835c0.281-0.15,1.476-0.946,1.761-1.095c0.374-0.2,0.951-0.307,1.517-0.422
					c0.167-0.175,0.414-0.244,0.694-0.244c0.086,0.003,0.179,0.01,0.269,0.024c0.072-0.02,0.128-0.026,0.151,0
					c0.013,0.012,0.027,0.025,0.04,0.035c0.126,0.028,0.252,0.062,0.38,0.102c0.29,0.029,0.633,0.018,0.823,0.217
					c0.328,0.346,1.076,0.601,1.469,1.014c0.248,0.262,0.235,0.797,0.394,1.132c0.067,0.137,0.306,1.22,0.29,1.403
					c-0.002-0.031-0.005-0.062-0.017-0.087c-0.052-0.107-0.147-0.385-0.201-0.438l-0.18-0.188c-0.032-0.033-0.095-0.021-0.134-0.033
					v-0.003c-0.004-0.009-0.007-0.011-0.01-0.017c-0.067-0.07-0.143-0.037-0.212-0.075c-0.03-0.015-0.071,0.002-0.099-0.013
					c-0.288-0.151-0.55,0.319-0.55,0.577c0,0.149,0.243,0.464,0.43,0.509c0.038-0.04,0.205-0.029,0.256-0.057
					c0.076-0.035,0.171-0.119,0.224-0.119c0.012,0-0.104,0.084-0.181,0.159c-0.033,0.032-0.106,0.08-0.172,0.133
					c0.011,0.043,0.023,0.084,0.049,0.109c0.011,0.013-0.009,0.055,0,0.064c0.05,0.053,0.067,0.128,0.068,0.214
					c0.098-0.005,0.212-0.024,0.273-0.024c0.105,0,0.221-0.062,0.221-0.038c0,0.029-0.258,0.066-0.301,0.081
					c-0.069,0.023-0.134,0.043-0.197,0.063c-0.005,0.082-0.02,0.165-0.027,0.24c-0.001,0-0.004,0-0.005,0
					c-0.018,0.264-0.062,0.521-0.125,0.77c0.001,0.031,0.002,0.062,0.003,0.094c-0.035,0.095-0.075,0.185-0.113,0.272
					c-0.562,1.7-1.985,3.004-2.795,3.209c0.011,0.009,0.023,0.012,0.035,0.019c-0.373,0.095-0.724,0.201-0.915,0.401
					c-0.037,0.04-0.188-0.023-0.236,0c-0.984,0.52-2.354,0.378-3.035,1.095c-0.422,0.444,2.763-0.418,2.796-0.418
					c0.274,0,0.872-0.125,1.113-0.257c0.12-0.062,0.428,0,0.562,0c0.571,0,0.984,0.132,1.426,0.34
					c0.101-0.063,0.186-0.107,0.232-0.107c0.079,0,0.733-0.187,1.007-0.228c-0.086-0.03-0.187-0.092-0.202-0.168
					c-0.337-0.081-0.622-0.167-0.786-0.34c-0.005-0.005-0.006-0.007-0.007-0.012c-0.027-0.016-0.046-0.033-0.068-0.056
					c-0.009-0.009-0.17,0.008-0.17,0c0-0.042,0.832-0.697,0.962-0.832c0.202-0.215,0.411-0.257,0.62-0.476
					c0.352-0.373,0.891-0.882,1.242-1.252c0.013,0.01,0.742-0.599,0.792-0.653c0.14-0.147,0.287-0.256,0.43-0.362
					c0.001-0.003,0.005-0.003,0.005-0.006c0.056-0.211,0.273-0.496,0.299-0.524c0.047-0.048,0.086-0.12,0.122-0.203
					c-0.002-0.029-0.009-0.079-0.009-0.095c0-0.491,0.018-0.959,0.032-1.417c0.045-0.448,0.057-0.922,0.028-1.368
					c0.008-0.281,0.055-1.556-0.001-1.615c-0.085-0.09-0.199-0.146-0.285-0.238c-0.028-0.029-0.076-0.045-0.134-0.05
					c-0.099,0.029-0.19,0.056-0.205,0.069c-0.073,0.072-0.195,0.112-0.282,0.197c-0.065,0.064-0.134,0.189-0.226,0.283
					c-0.09,0.088-0.143,0.168-0.228,0.253c-0.001,0-0.084,0.145-0.084,0.115c0-0.016,0.072-0.103,0.084-0.115
					c0.066-0.063,0.056-0.225,0.114-0.282c0.175-0.176,0.437-0.354,0.529-0.629c-0.005-0.005-0.016-0.015-0.021-0.021
					c-0.086-0.09-0.245-0.184-0.441-0.275c0.001,0.034-0.001,0.059-0.011,0.079c-0.065,0.13-0.263,0.488-0.338,0.564
					c-0.02,0.019-0.037,0.073-0.054,0.126c0,0.017-0.003,0.034-0.003,0.043c0,0.011-0.011,0.025-0.024,0.041
					c-0.011,0.024-0.021,0.045-0.032,0.045c-0.022,0,0.007-0.022,0.032-0.045c0.008-0.025,0.019-0.053,0.027-0.084
					c0.004-0.078,0.021-0.206,0.081-0.266c0.018-0.021-0.011-0.091,0-0.114c0.04-0.081,0.145-0.388,0.115-0.451
					c-0.004-0.01-0.008-0.024-0.011-0.036c-0.002,0-0.003-0.002-0.004-0.005c-0.658-0.273-1.577-0.534-1.991-0.75
					c-0.177-0.095-0.399-0.064-0.507-0.181C265.642,428.025,264.946,428.394,264.67,428.043L264.67,428.043z"/>
				<path fill="#E6B35A" stroke="#FFFFFF" stroke-width="0.9083" stroke-opacity="0" d="M281.538,427.933
					c0.205,0.351,0.952,0.596,0.922,0.846c-0.543,0.398-1.307,0.609-1.568,1.311c-0.232,0.323-0.437,0.66-0.618,1.012
					c-0.062,0.076-0.125,0.149-0.187,0.209c-0.053,0.055-0.106,0.174-0.14,0.242c-0.033,0.064-0.122,0.162-0.16,0.2
					c-0.099,0.1-0.198,0.379-0.301,0.481c-0.002,0.003-0.007,0.017-0.01,0.02c-0.092,0.042-0.2,0.085-0.307,0.141
					c-0.1,0.05-0.206,0.011-0.3,0.056c-0.009,0.005-0.023,0.005-0.035,0c0.044,0.023,0.438,0.122,0.474,0.122
					c0.096,0,0.225,0.04,0.355,0.097c0.001,0,0.002,0,0.003,0.003c0.005,0.005,0.027,0.014,0.059,0.023
					c0.042,0.021,0.08,0.04,0.123,0.06c-0.067-0.01-0.189-0.033-0.326-0.062c-0.004,0.019-0.008,0.04-0.013,0.059
					c0.068,0.07,0.163,0.124,0.218,0.181c0.005,0.005,0.082,0.005,0.082,0.018c0,0.025-0.055,0-0.082,0
					c-0.034,0-0.137-0.013-0.242-0.024c-0.019,0.161-0.022,0.326-0.005,0.499c-0.003,0.51-0.012,1.023-0.017,1.539v0.002
					c-0.026,0.1-0.015,0.217-0.003,0.333c0,0.068,0,0.138,0,0.206c-0.002,0.006,0,0.008,0,0.012
					c-0.007,0.032-0.018,0.062-0.033,0.091c-0.019,0.038,0.019,0.103,0,0.138c-0.085,0.173-0.148,0.318-0.219,0.461
					c-0.028,0.055-0.155,0.327-0.079,0.401c0.029,0.033,0.07,0.108,0.101,0.138c0.022,0.021,0.102,0.021,0.138,0.021
					c0.046,0,0.087-0.013,0.125-0.022c0.016,0.244,0.032,0.491,0.058,0.736c0.316,0.605,0.918,1.016,1.401,1.472
					c0.571,0.535,1.282,0.868,1.854,1.393c0.355,0.42,0.772,1.453,1.383,0.79c0.873-0.653,1.857-1.154,2.592-1.992
					c0.423-0.058,0.751-0.564,1.131-0.816c0.262-0.376-0.135-0.893,0.133-1.288c0.146-0.441,0.012-0.947,0.05-1.411
					c-0.021-1.342-0.033-2.685-0.095-4.025c0.368,0.129,0.381,0.264,0.268,0.608c0.022,0.76,0.953,0.791,1.01,0.017
					c0.086-0.623-0.458-0.915-0.808-1.28c-0.495-0.328-0.978-0.632-1.529-0.841c-0.442-0.186-0.956-0.247-1.31-0.614
					c-0.495-0.21-0.986-0.4-1.5-0.533c-0.439-0.256-0.864-0.499-1.353-0.639C282.378,428.144,281.952,428.054,281.538,427.933
					L281.538,427.933z M283.934,429.701c0.387,0.16,0.752,0.443,1.137,0.633c0.39,0.335,1.072,0.342,1.193,0.938
					c0.04,0.117,0.079,0.233,0.109,0.35c-0.012,0.013-0.029,0.03-0.035,0.035c-0.075,0.074,0.113,0.283,0.113,0.397
					c0,0.113-0.111,0.138-0.17,0.196c-0.077,0.078-0.024,1.011-0.111,1.186c-0.041,0.081-0.005,0.373-0.058,0.425
					c-0.157,0.157-0.071,1.302-0.226,1.608c-0.079,0.161,0.029,0.491,0.029,0.65v0.282c0,0.031-0.033,0.081-0.029,0.083
					c0.048,0.051,0.207,0.011,0.255,0.061c0.145,0.142-0.248,0.314-0.226,0.337c0.005,0.007,0.255,0.154,0.255,0.169
					c0,0.014-0.262,0.065-0.284,0.086c-0.047,0.047-0.109,1.36-0.056,1.41c0.071,0.073,0.168,0.097,0.266,0.1
					c-0.585,0.356-1.142,0.781-1.765,1.048c-0.005,0-0.01,0.002-0.016,0.004c-0.12,0.079-0.288,0.129-0.395,0.181
					c-0.058,0.029-0.224,0.162-0.262,0.162c-0.005,0,0.093-0.053,0.143-0.104c0.026-0.024,0.171-0.135,0.273-0.248
					c-0.017-0.081-0.032-0.164-0.044-0.251c-0.149,0.013-0.351,0.099-0.351,0.062c0-0.035,0.209-0.171,0.318-0.249
					c-0.031-0.188-0.074-0.373-0.149-0.534c-0.058,0.025-0.118,0.053-0.169,0.103c0.034-0.044,0.076-0.096,0.122-0.139
					c0.006-0.009,0.013-0.011,0.021-0.021c-0.075-0.133-0.181-0.248-0.335-0.322c-0.529-0.315-1.078-0.571-1.682-0.672
					c-0.698,0.083-0.927-0.642-0.804-1.259c0.102-0.839,0.128-1.678,0.102-2.519c0.027-0.301-0.023-0.626-0.013-0.936
					c0.018,0.015,0.077,0.021,0.095,0.038c0.006,0.008,0.035,0.062,0.04,0.062c0.001,0,0.178-0.302,0.201-0.323
					c0.273-0.275,0.334-0.691,0.599-0.956c0.048-0.048,0.05-0.132,0.098-0.179c0.078-0.078,0.301-0.263,0.301-0.34
					c0-0.068-0.127-0.249-0.209-0.341c0.02-0.034,0.043-0.067,0.059-0.1c0.004,0.002,0.007,0,0.007,0
					c0.094,0,0.165,0.002,0.242,0.037c0.032,0.016,0.329-0.473,0.4-0.579c0.021-0.033,0.114-0.155,0.199-0.276
					c0.235-0.1,0.485-0.179,0.711-0.273L283.934,429.701L283.934,429.701z M278.714,432.416c-0.02,0-0.034,0.003-0.047,0.015
					c-0.02,0.019,0.112,0.005,0.155,0.019C278.79,432.443,278.747,432.419,278.714,432.416L278.714,432.416z M283.677,438.822
					c-0.009,0.012-0.04,0.078-0.058,0.078C283.619,438.9,283.641,438.867,283.677,438.822L283.677,438.822z"/>
				<path fill="#E6B35A" stroke="#FFFFFF" stroke-width="1.0762" stroke-opacity="0" d="M289.988,426.895
					c-0.014,0.021-0.028,0.038-0.045,0.055c0.014,0.017,0.026,0.036,0.038,0.049c0.027,0.027,0.115,0.086,0.115,0.141
					c0,0.031,0.261,0.432,0.308,0.48c0.24,0.236,0.434,0.786,0.457,1.254c-0.039-0.036-0.083-0.069-0.125-0.104
					c-0.007-0.007-0.013-0.015-0.02-0.021c-0.361-0.361-0.734-0.816-1.099-1.183c-0.065-0.066-0.177-0.122-0.256-0.199
					c-0.04-0.043-0.333-0.263-0.338-0.254c-0.067,0.065,0.169,0.132,0.169,0.225c0,0.048,0.549,0.805,0.536,0.819
					c-0.036,0.035-0.08-0.022-0.083-0.028c-0.005-0.005-0.056-0.007-0.126-0.007c-0.016-0.003-0.029-0.005-0.037,0
					c-0.022,0-0.044,0.002-0.067,0.004c-0.038-0.012-0.072-0.025-0.11-0.025c-0.119,0-0.235,0.019-0.356,0.036
					c-0.037,0.002-0.076,0.002-0.109,0.004c0.013,0,0.024,0.005,0.038,0.005c-0.062,0.007-0.125,0.012-0.194,0.012
					c-0.006,0-0.026,0.002-0.038,0.002c0.002,0,0.007,0,0.009-0.002c0.011-0.005,0.025-0.007,0.036-0.012
					c-0.076,0.005-0.145,0.01-0.148,0.012c-0.007,0.007-0.017,0.016-0.024,0.02c-0.102,0.016-0.21,0.038-0.249,0.065
					c-0.035,0.008-0.07,0.015-0.095,0.027c-0.069,0.035-0.168,0.085-0.168,0.085c0-0.007,0.14-0.04,0.297-0.08
					c0.115,0.005,0.438-0.021,0.521-0.062c0.165-0.08,0.44,0.179,0.62,0.058c0.015-0.007,0.029-0.024,0.04-0.038
					c0.03,0.005,0.059,0.014,0.089,0.021c-0.009,0.018-0.015,0.033-0.015,0.045c0,0.049,0.092,0,0.142,0
					c0.029,0,0.104,0.046,0.134,0.032c0.139,0.052,0.271,0.118,0.38,0.192c-0.01,0.004-0.019,0.004-0.029,0.009
					c-0.002,0-0.007,0-0.01-0.003c0,0.003,0,0.005,0,0.008c-0.228,0.114-0.489,0.309-0.683,0.506
					c-0.098,0.093-0.086,0.322-0.16,0.396c-0.133,0.133,0,0.616,0.003,0.704c0.025-0.07,0.18-0.353,0.197-0.385
					c0.074-0.148,0.313-0.276,0.569-0.335c-0.012,0.684,0.048,1.382-0.011,2.054c-0.084,0.985-0.081,2.033,0.04,3.006
					c0.027,0.233-0.053,2.849,0.043,2.96c0.101,0.12,0.241,0.316,0.356,0.512c0.486,0.85,1.162,1.532,1.557,2.45l0.32,0.739
					c0.012,0.028,0.113,0.217,0.124,0.268c0.03-0.054,0.218-0.256,0.274-0.453c0.153-0.532,0.473-0.897,0.76-1.34
					c0.393-0.607,0.963-1.203,1.321-1.617c0.076-0.088,0.094-0.204,0.121-0.318c0.402,0.479,0.826,0.955,1.221,1.466
					c0,0-0.002,0.003,0,0.003c0.044,0.068,0.105,0.146,0.172,0.225c0.003,0.005,0.005,0.005,0.006,0.01
					c0.124,0.163,0.24,0.335,0.354,0.51c0.137,0.212,0.214,0.521,0.359,0.692c0.062,0.07,0.221,0.604,0.28,0.604
					c0.008,0,0.468-1.015,0.681-1.346c0.281-0.435,0.658-0.794,0.917-1.244c0.224-0.387,0.383-0.824,0.55-1.114
					c0.128,0.062,0.29,0.045,0.405-0.066c0.073-0.073,0.076-0.408,0.027-0.509c-0.051-0.101,0.025-0.232-0.027-0.336
					c-0.1-0.197,0.042-0.48-0.056-0.679c-0.062-0.124,0.058-0.535-0.029-0.623c-0.109-0.106-0.038-0.767-0.121-1.045
					c-0.004-0.083-0.007-0.166-0.011-0.249c0-0.013-0.002-0.024-0.003-0.034c-0.023-0.427-0.063-0.853-0.134-1.266
					c-0.048-0.275,0.016-0.562-0.042-0.833c-0.039-0.182-0.083-2.485-0.039-2.637c0.005-0.017,0.014-0.065,0.023-0.121
					c0.361-0.313,0.827-0.635,1.096-0.77c0.057-0.029,0.316-0.119,0.316-0.16c0-0.045-0.401,0.122-0.715,0.122
					c-0.337,0-2.817,0.259-2.877,0.318c-0.018,0-0.034,0-0.04,0.007c-0.014,0.019,0.159,1.064,0.159,1.202
					c0,0.38,0.181,1.347,0.317,1.667c0.12,0.275,0.106,0.826,0.203,1.157c0.009,0.035,0,0.099-0.008,0.165
					c-0.083,0.2-0.165,0.365-0.301,0.5c-0.012,0.012,0.106,0.106,0.115,0.11c0.079,0.084,0.079,0.331,0.14,0.454
					c0.057,0.112-0.018,0.35,0.057,0.423c0.046,0.045,0.012,0.55,0.084,0.622c0.088,0.085-0.08,0.965,0,1.129
					c0.035,0.068,0.179,0.018,0.227,0.114c0.031,0.059-0.064,0.106-0.028,0.142c-0.04-0.002-0.08-0.007-0.086,0
					c-0.007,0.007-0.137,0.057-0.113,0.084c0.054,0.054,0.566,0.303,0.566,0.339c0,0.039-0.486,0.012-0.535,0.113
					c-0.012,0.022,0.053,0.335,0.083,0.367c0.048,0.045,0.154,0.043,0.276,0.071c-0.039,0.07-0.024,0.337-0.051,0.407
					c-0.028,0.084-0.057,0.187-0.083,0.29c-0.104,0.069-0.203,0.136-0.307,0.167c-0.221,0.064-0.537,0.095-0.679,0.262
					c-0.018,0.021-0.387-0.224-0.452-0.262c-0.437-0.255-0.926-0.401-1.349-0.64c0,0-0.002,0-0.005,0
					c-0.004-0.007-0.01-0.009-0.017-0.013c-0.06-0.329-0.132-1.022-0.175-1.53c0.027-0.162,0.052-0.326,0.083-0.487
					c-0.034,0.002-0.082,0.008-0.098,0.008c-0.009,0-0.188-0.024-0.225-0.022c-0.01,0.008-0.015,0.008-0.015,0
					c0-0.002,0.009,0,0.015,0c0.007-0.007,0.016-0.014,0.023-0.019c0.067-0.031,0.152-0.023,0.218-0.06
					c0.029-0.012,0.07-0.007,0.104-0.009c0.005-0.031,0.01-0.062,0.017-0.091c0.029-0.137,0.029-0.285,0.036-0.43
					c-0.014-0.038-0.026-0.081-0.033-0.126c-0.086,0.017-0.174,0.04-0.222,0.057c-0.026,0.007-0.065,0-0.099-0.005
					c-0.027,0.024-0.06,0.05-0.06,0.027c0-0.027,0.027-0.029,0.06-0.027c0.007-0.005,0.015-0.012,0.018-0.016
					c0.047-0.047,0.199-0.093,0.293-0.109c-0.022-0.237,0.021-0.539,0.062-0.824c-0.008,0-0.034-0.003-0.034-0.003
					c0.01-0.009,0.021-0.021,0.037-0.033c0.013-0.074,0.023-0.146,0.032-0.219c-0.122,0.017-0.271,0.012-0.369,0.012
					c-0.007,0-0.015-0.005-0.022-0.007c0.007-0.007,0.015-0.011,0.022-0.014c0.05-0.026,0.128-0.015,0.179-0.041
					c0.034-0.017,0.12-0.03,0.201-0.047c0.01-0.081,0.017-0.156,0.017-0.224c-0.099,0.013-0.213,0.028-0.313,0.047
					c-0.084,0.036-0.175,0.054-0.167,0.046c0.014-0.015,0.084-0.03,0.167-0.046c0.012-0.007,0.023-0.01,0.036-0.014
					c0.089-0.048,0.221-0.076,0.303-0.131c0.022-0.052,0.051-0.104,0.017-0.17c-0.18-0.361,0.141-0.957-0.038-1.316
					c-0.082-0.166-0.202-1.315-0.202-1.56c0-0.238-0.175-1.02-0.157-1.04c0.068-0.069,0.8-0.562,1.157-0.794
					c0.029-0.07,0.053-0.137,0.039-0.152c-0.013-0.015-0.033-0.018-0.057-0.018c-0.073,0.008-0.181,0.066-0.222,0.066
					c-0.484,0-0.983,0.043-1.479,0.043c-0.056,0-0.322-0.043-0.36,0c-0.001,0,0.004,0.05,0.008,0.067
					c-0.552-0.131-0.856-0.005-0.925,0.151c-0.043,0.099,0.159,1.336,0.202,1.482c0.061,0.209-0.061,0.486,0,0.695
					c0.048,0.174,0.007,0.487,0.077,0.647c0.208,0.481-0.128,1.398,0,1.998c0.086,0.398-0.025,0.729,0.083,1.098
					c0.002,0.012,0.007,0.027,0.009,0.038c0.025,0.3,0.045,0.731,0.045,0.864v0.227c0,0.03-0.047,0.037-0.029,0.059
					c0.065,0.062,0.165,0.086,0.24,0.136c0.012,0.041,0.023,0.084,0.034,0.124c-0.064,0.083-0.229,0.175-0.216,0.192
					c0.054,0.05,0.164,0.055,0.248,0.072c0.002,0.025,0.006,0.046,0.011,0.072c-0.11,0.031-0.288,0.086-0.288,0.138
					c0,0.08,0.077,0.715,0.058,0.734c-0.026,0.025-0.086,0.375-0.086,0.394c0,0.074,0.152,0,0.228,0
					c0.027,0,0.088,0.005,0.138,0.008c-0.059,0.045-0.117,0.087-0.164,0.142c-0.339,0.392-0.79,0.654-1.213,0.979
					c-0.044,0.035-0.213,0.208-0.226,0.195c-0.167-0.195-0.368-0.345-0.621-0.49c-0.079-0.048-0.12-0.181-0.198-0.226
					c-0.335-0.195-0.606-0.534-0.917-0.787c-0.016-0.024-0.028-0.05-0.036-0.074c0.031-0.008,0.058-0.016,0.087-0.022
					c0.186-0.005,0.692-0.09,0.721-0.118c0.091-0.093-0.038-0.433,0.029-0.566c0.046-0.09-0.047-0.249,0-0.34
					c0.014-0.027,0.033-0.17,0-0.17c-0.057,0-0.285-0.058-0.311-0.083c-0.012-0.012,0.348-0.17,0.311-0.17
					c-0.021,0-0.037-0.611,0.029-0.679c0.053-0.052-0.069-0.32-0.086-0.336c-0.069-0.072,0.126-0.24,0.144-0.258
					c0.025-0.026-0.062-0.361,0.025-0.451c0.035-0.033-0.025-0.337-0.025-0.423c0-0.544-0.086-1.09-0.086-1.581
					c0-0.038,0.003-0.173,0.003-0.293c0,0,0.001-0.002,0-0.005c-0.038-0.106,0.026-0.306,0.026-0.38
					c0-0.108-0.015-0.323,0.027-0.368c0.015-0.014,0.039-0.019,0.068-0.021c0.074,0.174,0.188,0.333,0.243,0.39
					c0.022,0.021,0.25,0.257,0.368,0.14c0.067-0.065,0.14-0.11,0.196-0.168c0.05-0.047,0.067-0.207,0.115-0.255
					c0.016-0.016,0-0.142,0-0.168c0-0.477-0.051-1.097-0.34-1.384c-0.002-0.002-0.007-0.005-0.011-0.007
					c-0.001-0.003-0.002-0.005-0.004-0.008c-0.142-0.232-0.365-0.427-0.483-0.625c-0.01-0.019-0.022-0.033-0.035-0.05
					c-0.007,0.025-0.014,0.058-0.004,0.066c0.235,0.235,0.584,1.119,0.397,1.499c-0.118,0.232-0.009,0.279-0.285,0.279
					c-0.033,0-0.073,0.042-0.113,0c-0.166-0.165-0.238-0.422-0.349-0.664c0.004-0.006,0.006-0.008,0.011-0.012
					c0.062-0.062,0.046-0.417,0-0.509c-0.102-0.204,0.049-0.41-0.056-0.619c-0.215-0.431-0.381-1.006-0.735-1.357
					c-0.163-0.163-0.352-0.375-0.563-0.479C290.082,426.936,290.029,426.911,289.988,426.895L289.988,426.895z M288.689,428.144
					c0.042,0,0.083-0.005,0.137-0.005c-0.019-0.002-0.041-0.004-0.06-0.004C288.739,428.135,288.713,428.139,288.689,428.144
					L288.689,428.144z M295.169,433.563c0.001,0,0.005,0,0.01,0c-0.01,0.007-0.015,0.015-0.015,0.007
					C295.164,433.568,295.165,433.563,295.169,433.563L295.169,433.563z M292.527,441.411c-0.003,0.007-0.005,0.007,0,0.007
					c0.003,0,0.005,0,0.004-0.007H292.527L292.527,441.411z"/>
				<path fill="#E6B35A" stroke="#FFFFFF" stroke-width="1.1129" stroke-opacity="0" d="M304.607,427.966
					c-0.881,0.264-2.923,2.843-3.544,4.677c-0.074,0.216-0.503,1.18-0.184,1.423c0.271,0.204,0.566,0.652,0.881,0.893
					c0.258,0.194,0.604,0.239,0.991,0.204c-0.024-0.204-0.05-0.456-0.005-0.456c0.031,0,0.099,0.233,0.17,0.439
					c0.046-0.008,0.095-0.014,0.142-0.021c-0.042-0.117-0.075-0.23-0.029-0.277c0.014-0.013,0.096,0.112,0.175,0.245
					c0.375-0.078,0.76-0.195,1.131-0.303c-0.013-0.169-0.023-0.335,0.05-0.335c0.043,0,0.062,0.206,0.077,0.295
					c0.052-0.016,0.105-0.032,0.156-0.047c0.017-0.08,0.047-0.335,0.049-0.335c0.02,0-0.009,0.039,0,0.055
					c0.031,0.065,0.041,0.157,0.053,0.252c0.567-0.159,1.056-0.247,1.312-0.052c0.237,0.178,0.389,0.659,0.495,0.819
					c0.516,0.751-0.658,4.102-1.021,4.581c-0.108,0.146-0.725,1.2-0.871,1.434c0.103-0.049,0.319-0.032,0.423-0.103
					c0.474-0.324,0.989-0.865,1.338-1.323c0.905-1.194,1.478-2.605,1.977-4.081c0.139-0.408,0.063-0.891,0.201-1.298
					c0.076-0.227-0.104-0.756-0.138-0.999c-0.364-2.645-3.686-0.223-4.423-0.78c-1.04-0.789-0.434-2.573-0.105-3.541
					C304.08,428.83,304.188,428.668,304.607,427.966L304.607,427.966z M304.637,441.457c-0.041,0.018-0.068,0.045-0.062,0.092
					C304.576,441.552,304.618,441.487,304.637,441.457L304.637,441.457z"/>
				<path fill="#E6B35A" stroke="#FFFFFF" stroke-width="1.1129" stroke-opacity="0" d="M302.194,437.64
					c-0.01,0-0.018,0.002-0.026,0.007c-0.324,0.156-0.584,0.562-0.904,0.72c-0.128,0.062,0.341,0.024,0.449,0.062
					c0.149,0.05,0.881,0.446,0.961,0.61c0.072,0.15,0.307,0.269,0.379,0.413l0.302,0.62c0.087,0.177,0.307,0.656,0.341,0.922
					c0.015,0.1,0.009,0.226,0.04,0.292c0.008,0.015,0.017,0.022,0.029,0.029c-0.147,0.296-0.335,0.773,0.316,0.684
					c0.783-0.107,1.11-0.791,1.481-1.282c0.047-0.062-0.055-0.122-0.061-0.126c-0.022-0.018-0.038-0.039-0.052-0.06
					c0.145-0.06,0.329-0.143,0.279-0.25c-0.145-0.294-0.574-0.642-0.821-0.893c-0.256-0.262-2.043-1.907-2.473-1.698
					C302.377,437.718,302.266,437.638,302.194,437.64L302.194,437.64z"/>
				<path fill="#E6B35A" stroke="#FFFFFF" stroke-width="1.1129" stroke-opacity="0" d="M302.116,437.451
					c-0.022,0.003-0.04,0.008-0.053,0.025c-0.183,0.241-0.855,0.505-1.297,0.765c-0.006,0.002-0.012,0.007-0.018,0.008
					c-0.388,0.182-0.799,0.55-0.84,1.134c-0.008,0.118,0.14,0.219,0.161,0.266c0.096,0.235,0.268,0.361,0.491,0.378
					c0.862,0.06,1.016-1.256,0.457-1.634c0.167-0.057,0.327-0.084,0.41-0.021c0.01,0.008,0.133,0.138,0.188,0.064
					c0.119-0.156,1.143-0.363,1.194-0.435c0.039-0.048-0.444-0.487-0.518-0.512C302.279,437.484,302.182,437.444,302.116,437.451
					L302.116,437.451z"/>
				<path fill="#E6B35A" stroke="#FFFFFF" stroke-width="1.1129" stroke-opacity="0" d="M304.598,428.056
					c-0.218-0.019-0.846,0.909-0.964,1.107l-0.079,0.571c-0.193,0.105-0.361,0.056-0.536,0.061c-0.02,0,0.283,0.225,0.319,0.258
					c0.08,0.078,0.196,0.149,0.325,0.215c0.015-0.071,0.056-0.148,0.131-0.221c0.028-0.027,0.037-0.169,0.085-0.169
					c0.018,0-0.143,0.251-0.132,0.428c0.066,0.03,0.137,0.059,0.206,0.087c0.09-0.087,0.176-0.262,0.265-0.262
					c0.035,0-0.075,0.198-0.086,0.34c0.116,0.049,0.229,0.092,0.329,0.139c0.003,0,0.005,0.002,0.008,0.005
					c0.005,0.005,0.008,0.01,0.013,0.017c0.107,0.109,0.354,0.043,0.444,0.133c0.033,0.033,0.113,0.03,0.188,0.033
					c0.008-0.048,0.016-0.09,0.035-0.128c0.041-0.084,0.083-0.179,0.083-0.255c0-0.005,0.007-0.012,0.011-0.021
					c-0.001-0.019,0.001-0.035,0.018-0.035c0.004,0-0.008,0.019-0.018,0.035c0.004,0.045,0.038,0.127,0.018,0.165
					c-0.023,0.047-0.041,0.145-0.042,0.248c0.018,0.005,0.031,0.015,0.042,0.024c0.032,0.036,0.118,0.014,0.152,0.045
					c0.025,0.026,0.063,0.043,0.109,0.055c0.057-0.192,0.133-0.459,0.191-0.459c0.038,0-0.029,0.245-0.064,0.474
					c0.237,0.012,0.595-0.053,0.924-0.103c0.231,0.052,0.49,0.024,0.684,0.121c0.061,0.029,0.162-0.031,0.221,0
					c0.031,0.014,0.09,0.029,0.159,0.041h0.003c0.324,0.173,0.618,0.355,0.863,0.603c0.021,0.02,0.248,0.356,0.287,0.337
					c0.158-0.08,0.043-0.46,0.043-0.604c0-0.124,0.023-0.272-0.061-0.352c-0.033-0.033-0.083-0.067-0.141-0.096
					c0.002-0.06,0.007-0.111,0.023-0.149c0.037-0.068,0.163-0.508,0.16-0.511c-0.027-0.026-0.083-0.02-0.109-0.045
					c-0.141-0.143-0.383-0.224-0.604-0.332c-0.15-0.075-0.451-0.025-0.559-0.132c-0.021-0.021-0.094-0.028-0.176-0.028
					c-0.125-0.052-0.232-0.085-0.287-0.085c-0.112,0-0.58-0.133-0.645-0.202c-0.062-0.06-0.355-0.086-0.379-0.109
					c-0.021-0.021-0.035-0.055-0.051-0.085c-0.414-0.203-0.811-0.423-1.144-0.743c-0.098-0.093-0.139-0.312-0.226-0.395
					C304.625,428.062,304.612,428.058,304.598,428.056L304.598,428.056z"/>
				<path fill="#E6B35A" stroke="#FFFFFF" stroke-width="1.1129" stroke-opacity="0" d="M307.869,430.371
					c-0.006,0.064-0.078,0.193-0.013,0.198C307.924,430.574,307.852,430.306,307.869,430.371c0.057,0.211,0.018,0.316,0.051,0.443
					c0.021,0.077,0.166,0.128,0.185,0.207c0.013,0.051,0.163,0.07,0.193,0.115c0.086,0.132,0.409,0.325,0.446,0.468
					c0.008,0.03,0.038,0.109,0.053,0.082c0.055-0.092,0.172-1.079,0.186-1.282c0.021-0.344,0.447-1.392,0.4-1.569
					c-0.02-0.078-0.102-0.155-0.162-0.25c-0.221-0.337-1.244-0.401-1.105,0.128c0.057,0.21,0,0.507,0.171,0.77
					c0.136,0.207,0.563,0.072,0.496,0.032c-0.041-0.025-0.042,0.092-0.03,0.137c0.014,0.05-0.15,0.259-0.18,0.306
					c-0.117,0.205-0.19,0.457-0.229,0.483c-0.053,0.033-0.144,0.124-0.09,0.154C308.381,430.671,307.998,430.445,307.869,430.371
					L307.869,430.371z"/>
				<path fill="#E6B35A" stroke="#FFFFFF" stroke-width="1.1103" stroke-opacity="0" d="M313.844,428.335
					c-0.059,0.006-0.299,0.266-0.395,0.357c-0.424,0.425-0.9,0.779-1.33,1.199c-0.252,0.064-0.541,0.161-0.659,0.283
					c-0.114,0.114-0.233,0.255-0.36,0.383c-0.088,0.086-0.169,0.586-0.219,0.636c-0.079,0.08-0.164,0.262-0.262,0.358
					c-0.055,0.055-0.119,0.117-0.177,0.174c-0.015,0.005-0.028,0.011-0.042,0.016c-0.174,0.059-0.378,0.17-0.551,0.17
					c-0.033,0-0.326,0.023-0.326,0.028c0,0.012,0.137,0.019,0.157,0.029c0.062,0.029,0.303,0.008,0.476,0.037
					c-0.199,0.195-0.398,0.395-0.592,0.586c-0.017,0.018-0.045,0.081-0.071,0.157c-0.081,0.036-0.152,0.066-0.181,0.066
					c0,0-0.479,0.147-0.493,0.155c-0.007,0.004-0.019,0.004-0.03,0.004c-0.061,0.024-0.111,0.052-0.168,0.078
					c-0.016,0.01-0.057-0.002-0.057,0.017c0,0.02,0.252,0.015,0.281,0.015c0.102,0,0.213,0,0.297,0.043
					c0.009,0.002,0.12-0.015,0.24-0.033c-0.012,0.071-0.018,0.178,0,0.216c0.041,0.081,0.098,0.104,0.16,0.102
					c-0.014,0.02-0.023,0.039-0.029,0.051c0.002,0.005,0,0.012,0,0.017c0.019,0.012,0.117,0,0.139,0h0.113
					c0.009,0,0.028-0.008,0.028,0c0,0.012-0.036,0.009-0.044,0.014c-0.054,0.056-0.135,0.107-0.203,0.166
					c0.08,0.402-0.031,0.844,0.048,1.242c0.165,0.822,0.269,2.166,0,2.969c-0.034,0.103-0.019,0.462-0.091,0.534
					c-0.001,0-0.127,0.141-0.092,0.178c0.081-0.087,0.415-0.255,0.516-0.221c-0.062,0.043-0.1,0.105-0.062,0.175
					c0.004,0.007-0.008,0.035,0,0.043c0.062,0.061,0.098,0.133,0.196,0.183c0.059,0.027,0.346,0.076,0.381,0.11
					c0.07,0.069,0.167,0.099,0.255,0.185c0.016,0.018,0.039,0.067,0.056,0.085c0.05,0.053,0.161,0.081,0.198,0.156
					c0.032,0.064,0.096,0.148,0.141,0.24c0.064,0.126,0.118,0.499,0.212,0.592c0.119,0.121,0.217,0.285,0.312,0.382
					c0.048,0.05,0.15,0.066,0.197,0.111c0.038,0.04,0.244,0.033,0.405,0.035c0.075,0.072,0.222,0.142,0.302,0.193
					c0.082,0.055,0.15,0.128,0.239,0.185c0.106,0.072,0.235,0.345,0.289,0.455c0.013,0.022,0.265,0.335,0.269,0.337
					c0.064,0.033,0.129,0.081,0.18,0.131c0.045,0.047,0.238,0.191,0.328,0.148c0.033-0.017,0.102-0.019,0.121-0.04
					c0.076-0.076,0.141-0.176,0.201-0.275c0.115-0.104,0.316-0.231,0.453-0.323c0.446-0.298,0.827-0.71,1.244-1.023
					c0.377-0.282,0.805-0.491,1.197-0.75c0.332-0.223,0.668-0.649,0.977-0.803c0.02-0.013,0.046-0.021,0.072-0.029
					c0.027,0.024,0.049,0.048,0.07,0.074c0.106,0.261,0.147,0.758,0.147,0.981c0,0.052,0.013,0.145-0.013,0.168
					c-0.026,0.029,0.011,0.117-0.016,0.142c-0.021,0.022,0.008,0.093-0.014,0.115c-0.016,0.016-0.003,0.27-0.029,0.295
					c-0.033,0.035-0.193-0.385-0.422-0.155c-0.176,0.175-0.186,0.551,0,0.734c0.059,0.062,0.109,0.028,0.182,0.028
					c0.201,0,0.295-0.223,0.383-0.312c0.025-0.026-0.011-0.114,0.016-0.14c0.025-0.028-0.03-0.144,0-0.172
					c0.047-0.047,0.056-0.225,0.056-0.309c0-0.108,0.028-0.479,0.069-0.565c0.016-0.028,0.014-0.062,0.01-0.097
					c0.002,0,0.006,0,0.006,0c0.006,0,0.041-0.211,0.041-0.243c0-0.225,0.022-0.47,0.027-0.71c0.076-0.14,0.036-0.997,0.036-1.092
					c0-0.335,0.169-1.028,0.042-1.154c-0.281-0.283-2.824,0.025-3.473,0.045c0.012,0.01,0.03,0.026,0.053,0.048h0.317
					c0.021,0,0.063,0.002,0.12,0.014c0,0,0.002,0,0.004,0.003c0.191,0.143,0.83,0.41,0.938,0.517
					c0.171,0.171,0.302,0.359,0.452,0.511c0.013,0.013,0.021,0.027,0.027,0.043c-0.002,0.002-0.003,0.008-0.007,0.008
					c-0.204,0.032-0.464,0.104-0.505,0.127c-0.202,0.099-0.533,0.146-0.796,0.276c-0.175,0.086-0.362,0.295-0.534,0.448
					c0.122,0.317,0.391,0.792,0.402,0.792c0.002,0-0.146-0.145-0.283-0.283c-0.074-0.075-0.17-0.269-0.253-0.312
					c-0.015-0.007-0.052-0.018-0.096-0.033c-0.062,0.033-0.137,0.083-0.222,0.144c0.012,0.021,0.029,0.052,0.034,0.06
					c0.104,0.206,0.285,0.344,0.396,0.564c0.201,0.404,0.262,0.503-0.058,0.028c-0.057-0.085-0.087-0.145-0.167-0.225
					c-0.07-0.07-0.126-0.155-0.199-0.227c-0.039-0.039-0.08-0.08-0.119-0.121c-0.217,0.166-0.443,0.373-0.521,0.522
					c-0.062,0.127-0.163,0.302-0.259,0.399c-0.146,0.146-0.265,0.273-0.358,0.461c-0.016,0.031-0.024,0.074-0.024,0.121
					c-0.018,0.017-0.034,0.033-0.049,0.05c-0.053-0.038-0.1-0.072-0.152-0.112c-0.002-0.014-0.008-0.027,0.004-0.05
					c0.049-0.097-0.02-0.311-0.078-0.369c-0.01-0.009-0.04-0.031-0.05-0.051c-0.056-0.116-0.255-0.152-0.333-0.228
					c-0.009-0.012,0.064-0.095,0.072-0.11c0.006-0.014,0.021-0.045,0.031-0.055c-0.02-0.002-0.121-0.05-0.131-0.057
					c-0.015-0.006-0.041-0.005-0.059-0.009c-0.057-0.02-0.082-0.069-0.133-0.093c-0.075-0.038-0.16-0.069-0.238-0.109
					c-0.234-0.117-0.521-0.28-0.699-0.459c-0.025-0.025-0.096-0.035-0.121-0.061c-0.017-0.018-0.09-0.043-0.163-0.067
					c-0.194-0.154-0.362-0.297-0.479-0.416c0.01-0.021,0.021-0.059,0.026-0.065c0.094-0.193,0.275-0.311,0.358-0.478
					c0.04-0.081-0.175-0.29-0.24-0.421c-0.026-0.049,0-0.18,0-0.24c0-0.13,0.061-1.078,0.091-1.261
					c-0.055-0.008-0.135-0.101-0.172-0.138c-0.066-0.066-0.16-0.1-0.24-0.181c-0.043-0.043-0.06-0.14-0.098-0.217
					c-0.256-0.513-0.24-1.191,0.046-1.437c0.006-0.016,0.017-0.043,0.021-0.048c0.069-0.138,0.26-0.201,0.353-0.297
					c0.019-0.016,0.079-0.019,0.1-0.043c0.039-0.038,0.201-0.011,0.197-0.011c-0.147,0-0.31-0.212-0.31-0.369
					c0-0.16,0.045-0.254,0.141-0.353c0.074,0.007,0.146,0.013,0.173,0.04c0.005,0.005,0.101,0.1,0.12,0.08
					c0.024-0.023,0.009-0.111,0.037-0.142c0.077-0.073,0.164-0.24,0.24-0.316l1.002-0.999c0.104-0.105,0.771-0.157,0.816-0.2
					c0.092-0.093-0.146-0.554,0.019-0.718c0.181-0.18,0.55-0.354,0.798-0.602c0.004-0.004,0.012-0.009,0.018-0.013
					c0.105,0.065,0.193,0.145,0.223,0.173c0.477,0.478,1.59,0.788,2.128,1.327c0.094,0.093,0.335,0.074,0.441,0.182
					c0.048,0.047-0.214,0.432-0.265,0.531c-0.017,0.034-0.028,0.496-0.035,0.912c-0.01,0-0.021,0-0.031,0.002
					c-0.029,0.129-0.061,0.274-0.037,0.321c0.064,0.126,0.059,0.28,0.059,0.426c-0.027-0.045-0.059-0.096-0.059-0.144
					c0-0.142-0.055-0.451-0.129-0.592c-0.071,0.004-0.135,0.004-0.174-0.012c-0.041-0.011-0.138-0.022-0.264-0.035
					c-0.024,0.062-0.01,0.575-0.043,0.877c0.008,0.059,0.01,0.116-0.012,0.158c0,0.003-0.059,0.094-0.027,0.029
					c0.018-0.036,0.031-0.107,0.039-0.188c-0.012-0.09-0.039-0.181-0.039-0.238c0-0.194-0.07-0.47-0.152-0.655
					c-0.417-0.026-0.949-0.033-1.041,0.014c-0.189,0.096-0.307,0.273-0.479,0.359c-0.075,0.038-0.315-0.038-0.417-0.038
					c-0.244,0-1.141,0.141-1.443,0.302c-0.242-0.038-0.508,0.133-0.695,0.173c-0.141-0.051-0.291-0.106-0.439-0.104
					c-0.063,0-0.128,0.015-0.189,0.044c-0.111,0.005-0.209,0.018-0.253,0.061c-0.03,0.031-0.104,0.079-0.128,0.1
					c-0.012,0.013-0.021,0.034-0.029,0.052l0.013,0.013c-0.093,0.081-0.173,0.174-0.21,0.28c-0.04,0.124-0.041,0.254-0.041,0.397
					c0,0.246,0.195,0.414,0.318,0.601c0.127,0.186,0.249,0.32,0.439,0.415c0.135,0.066,0.42-0.028,0.52-0.078
					c0.122-0.06,0.263-0.109,0.399-0.179c0.181-0.09,0.235-0.287,0.288-0.467c0.062-0.093,0.101-0.301,0.115-0.312
					c0.032-0.035,0.057-0.073,0.088-0.112c0.181-0.021,0.329-0.034,0.383-0.035c-0.064,0.202-0.166,0.414-0.154,0.427
					c0.025,0.025,0.258-0.157,0.279-0.176c0.086-0.088,0.399-0.15,0.559-0.238c0.023-0.005,0.047-0.01,0.068-0.021
					c0.05-0.025,0.123-0.014,0.185-0.014c0.036,0,0.066,0.002,0.099,0.004c0.001,0,0.002,0,0.002,0
					c0.103,0.024,0.21,0.056,0.309,0.076c0.085,0.038,0.164,0.085,0.275,0.143c0.512-0.05,1.016-0.106,1.42-0.106
					c0.574,0,1.105-0.136,1.686-0.136h0.756c0.047,0,0.135,0.095,0.135,0.048v-1.516c-0.045-0.043-0.084-0.083-0.105-0.095
					c-0.06-0.028-0.043-0.015-0.043-0.098c0-0.161,0.064-0.259,0.148-0.347v-0.03v-0.036c0.012-0.009,0.022-0.021,0.035-0.026
					c0.038-0.017,0.105-0.019,0.127-0.04c0.013-0.015-0.07-0.093-0.07-0.114c0-0.033-0.043-0.085-0.057-0.1
					c-0.005-0.003-0.088-0.444-0.084-0.451c0.062-0.128,0.088-0.511,0.168-0.594c0.05-0.05,0.068-0.166,0.113-0.211
					c0.066-0.066,0.119-0.145,0.185-0.212c0.005-0.007,0.056-0.038,0.056-0.043c0-0.026-0.216,0.115-0.24,0.126
					c-0.122,0.064-0.236,0.159-0.324,0.264c-0.002,0-0.004-0.002-0.004,0c-0.041,0.021-0.081,0.043-0.105,0.068
					c-0.003,0.003-0.131,0.167-0.137,0.16c-0.012-0.011,0.043-0.271,0-0.316c-0.171-0.174-0.412-0.158-0.683-0.158
					c-0.018,0,0.029-0.134,0.038-0.295c-0.043-0.02-0.087-0.038-0.13-0.061c-0.61-0.306-1.204-0.636-1.86-0.803
					c-0.4-0.1-0.825-0.439-1.158-0.662c-0.283-0.19-0.707-0.175-0.927-0.399C313.848,428.338,313.847,428.335,313.844,428.335
					L313.844,428.335z M312.998,439.458c0.003,0,0.007,0,0.007,0C313.005,439.451,313.004,439.453,312.998,439.458L312.998,439.458z
					 M316.957,433.645c0.007,0.014,0.017,0.031,0.023,0.048c0.001,0,0,0.011,0,0.023c0.014,0.032,0.026,0.06,0,0.06
					c-0.002,0,0-0.033,0-0.06C316.97,433.692,316.959,433.665,316.957,433.645L316.957,433.645z M311.807,433.934
					c0.359-0.014,0.522,0.701,0.331,0.895c-0.062,0.062-0.341,0.308-0.438,0.261c-0.066-0.033-0.162-0.048-0.219-0.103
					c-0.154-0.153-0.373-0.432-0.238-0.698c0.126-0.257,0.27-0.306,0.396-0.297C311.698,433.955,311.755,433.937,311.807,433.934
					L311.807,433.934z"/>
				<path fill="#E6B35A" stroke="#FFFFFF" stroke-opacity="0" d="M323.6,426.918c-0.007-0.005-0.709,0.23-0.797,0.318
					c-0.492,0.489-2.29,1.107-3.426,1.299c-0.002,0.003-0.006,0-0.011,0c-0.063-0.062-0.313,0.062-0.436,0
					c-0.065-0.03-0.126-0.01-0.182-0.038c-0.194-0.097-0.452-0.151-0.599-0.299c-0.049-0.048-0.148-0.025-0.201-0.081
					c-0.082-0.083-0.035-0.232-0.1-0.297c-0.077-0.078-0.176-0.14-0.259-0.223c-0.044-0.043-0.18-0.102-0.222-0.02
					c-0.088,0.176,0.189,0.35,0.301,0.461c0.112,0.114,0.273,0.216,0.44,0.299c0.094,0.048,0.203,0.126,0.259,0.182
					c0.012,0.014,0.031,0.021,0.051,0.027c0.002,0,0.004,0,0.004,0c0.163,0.182,2.057,0.288,2.141,0.371
					c0.031,0.031,0,0.269,0,0.319c0,0.216-0.15,1.585-0.237,1.757c-0.274,0.551,0.188,5.588,0.317,6.229
					c0.094,0.468,0.103,1.002,0.017,1.513c0,0,0.002,0,0,0.002c-0.013,0.029-0.026,0.061-0.036,0.09
					c-0.112,0.335-0.488,0.825-0.82,0.992c-0.166,0.083-0.294,0.248-0.344,0.299c0.108-0.023,0.541-0.045,0.598-0.045
					c0.028,0,0.057,0,0.086,0c-0.068,0.095-0.141,0.183-0.221,0.264c-0.181,0.183-0.331,0.38-0.456,0.558
					c-0.036,0.038-0.091,0.093-0.122,0.124c-0.063,0.063-0.07,0.149-0.119,0.197c-0.01,0.009,0.004,0.042,0,0.057
					c-0.001,0.002,0,0.005,0,0.005c-0.062,0.108-0.101,0.179-0.1,0.179c0.016-0.015,0.035-0.039,0.054-0.062
					c-0.04,0.112-0.069,0.236-0.132,0.359c-0.037,0.079-0.016,0.198-0.043,0.281c-0.069,0.214-0.059,0.443-0.059,0.682
					c0,0.04,0.018,0.151,0.041,0.176c0.004,0.003,0.008,0.007,0.012,0.012c-0.028-0.071,0.027-0.527,0.027-0.608
					c0-0.101,0.125-0.487,0.199-0.56c0.056-0.058,0.016-0.195,0.082-0.26c0.056-0.058,0.052-0.152,0.117-0.219
					c0.19-0.187,0.336-0.463,0.689-0.511c0.259-0.23,0.64-0.453,1.01-0.652c0.163,0.002,0.326,0.007,0.488,0.007
					c0.307,0,0.687-0.062,0.988,0c0.177,0.035,0.383,0.056,0.562,0.056c0.059,0,0.836,0.045,1.097,0.069
					c-0.061-0.017-0.126-0.037-0.134-0.042c-0.207-0.103-0.452-0.181-0.679-0.226c-0.263-0.052-0.688-0.174-1.048-0.299
					c0.115-0.003,0.228-0.008,0.244-0.022c0.018-0.021-0.302-0.037-0.407-0.037c-0.108-0.044-0.208-0.081-0.285-0.121
					c-0.03-0.015-0.09-0.051-0.139-0.079c0.04-0.033,0.077-0.068,0.11-0.102c0.544-0.546,0.426-2.9,1.277-3.752
					c0.178-0.179-0.211-0.692-0.24-0.72c-0.014-0.014-0.02-0.045-0.021-0.088c-0.223-0.212-0.875-0.695-0.875-0.711
					c0-0.012,0.113,0.086,0.226,0.141c0.222,0.111,0.484,0.232,0.622,0.368c0,0,0.02,0.002,0.035,0.002
					c0.005-0.079,0.014-0.162,0.014-0.192c0-0.32-0.005-0.705,0.002-1.1c-0.157,0.008-0.318,0.019-0.418,0.019
					c-0.141,0-0.283,0.031-0.283,0.029c0-0.043,0.173-0.045,0.199-0.058c0.133-0.066,0.34-0.161,0.51-0.186
					c0.002-0.059,0.002-0.119,0.004-0.178c-0.002,0-0.004-0.002-0.007-0.004c-0.097-0.048-0.162-0.084-0.282-0.084
					c-0.159,0,0.092-0.078,0.305-0.138c0.029-0.453,0.09-0.897,0.211-1.256c0.08-0.24-0.062-0.555,0-0.799
					c0.188-0.755,0.005-1.551,0.158-2.315c0.061-0.302,0.163-0.658,0.163-0.962C323.522,427.181,323.697,427.016,323.6,426.918
					L323.6,426.918z M324.261,440.228c0.049,0.016,0.091,0.025,0.091,0.016C324.352,440.241,324.312,440.232,324.261,440.228
					L324.261,440.228z M319.456,440.124c-0.007,0.002-0.019,0.005-0.019,0.005C319.438,440.138,319.445,440.131,319.456,440.124
					L319.456,440.124z M319.004,442.907c0.002,0.002,0.002,0.007,0.002,0.007C319.014,442.914,319.01,442.912,319.004,442.907
					L319.004,442.907z"/>
				<path fill="#E6B35A" stroke="#FFFFFF" stroke-opacity="0" d="M325.676,427.728c-1.188,0.022-2.384,0.363-2.83,1.046
					c0,0.021-0.004,0.047-0.004,0.071l0.359,0.073c-0.117-0.021-0.266,0.009-0.365-0.05c-0.017,0.479-0.084,1.114-0.033,1.166
					c0.09,0.088,0.18-0.078,0.238-0.078c0.213,0,0.579-0.169,0.799-0.239c0.366-0.124,1.839-0.091,2.135,0.145
					c0.064-0.122,0.147-0.247,0.262-0.305c0.039-0.019,0.12-0.08,0.177-0.095c0.019-0.018,0.033-0.026,0.043-0.026
					c0.013,0-0.005,0.02-0.019,0.02c-0.006,0-0.017,0.005-0.024,0.007c-0.102,0.083-0.308,0.36-0.274,0.395
					c0.01,0.011,0.171-0.04,0.219-0.04c0.018,0,0.035,0,0.051,0.001c0.04-0.009,0.078-0.016,0.09-0.001
					c0.002,0,0.002,0.001,0.003,0.004c0.024-0.003,0.046-0.004,0.073-0.004c0.085,0,0.15,0.006,0.199,0.054
					c0.002,0,0.004,0.002,0.004,0.004c0.013,0,0.025,0,0.039,0c0.026,0,0.065,0.014,0.105,0.027
					c0.045,0.003,0.088,0.009,0.114,0.033c0.015,0.017,0.042,0.021,0.058,0.038c0.006,0.005-0.006,0.021-0.013,0.023
					c0.011,0.01,0.05,0.081,0.035,0.081c-0.022,0-0.074-0.036-0.08-0.043c-0.077-0.078-0.456,0.061-0.478,0.08
					c-0.013,0.013-0.023,0.022-0.033,0.036c0.02,0.034,0.02,0.093,0.049,0.122c0.002,0.002,0.01,0.009,0.012,0.012
					c-0.096,0.03-0.176,0.085-0.207,0.151c-0.028,0.052-0.043,0.335,0,0.379c0.002,0.002,0.315,0.07,0.363,0.077
					c-0.007,0.026-0.014,0.051-0.025,0.064c-0.01,0.009-0.082,0.156-0.059,0.178c0.061,0.065,0.1,0.14,0.178,0.218
					c0.113,0.112,0.422,0.104,0.615,0.095c0,0.003,0.004,0.005,0.004,0.005c0,0.092-0.502,0.041-0.519,0.041
					c-0.024,0-0.236-0.052-0.22-0.019c0.064,0.131,0.169,0.211,0.304,0.285c0.11-0.002,0.216-0.007,0.256,0.032
					c0.101,0.103,0.271,0.082,0.479,0.082c0.851,0,1.176-0.521,1.517-1.199c0.151-0.303-0.065-0.77-0.159-0.957
					c-0.252-0.509-0.426-0.903-0.8-1.278C327.824,427.948,326.755,427.707,325.676,427.728L325.676,427.728z M322.836,428.868
					c0.002-0.008,0.006-0.016,0.006-0.023l-0.039-0.008C322.812,428.847,322.824,428.86,322.836,428.868L322.836,428.868z
					 M322.803,428.837c0.013-0.023,0.027-0.042,0.043-0.063c0.006-0.304-0.021-0.521-0.126-0.416
					c-0.06,0.06,0.083,0.078,0.083,0.162C322.803,428.625,322.728,428.762,322.803,428.837L322.803,428.837z"/>
				<path fill="#E6B35A" stroke="#FFFFFF" stroke-opacity="0" d="M332.947,426.429c-0.291,0.149-0.599,0.335-0.688,0.451
					c-0.187,0.245-0.67,0.473-0.799,0.843c-0.732,2.122-1.238,3.494-3.185,4.811c-0.297,0.201-0.755,0.043-1.059,0.194
					c0.284,0.033,1.349,0.15,1.528-0.085c0.133-0.172,0.735-0.562,1.211-0.865c-0.055,0.254-0.02,0.518,0.195,0.733
					c0.018,0.021,0.099-0.018,0.119,0c0.027,0.027,0.06,0.043,0.096,0.05c-0.04,0.218-0.074,0.414-0.1,0.492
					c-0.597,1.837,0.709,0.395,0.439,1.181c-0.074,0.212,0.049,0.486-0.023,0.689c-0.29,0.921-0.05,1.929-0.025,2.974
					c-0.164,0.21-0.215,1.798-0.346,1.964c-0.059,0.077-0.178,0.169-0.25,0.264c-0.131,0.171-0.369,0.355-0.621,0.479
					c-0.18,0.088-1.299,1.496-1.529,1.796c-0.051,0.068-0.318,0.41-0.283,0.437c0.053,0.043,0.539-0.494,0.658-0.599
					c0.22-0.192,0.659-0.428,1.043-0.672c0.111-0.028,0.227-0.096,0.254-0.128c0.034-0.046,0.156-0.02,0.19-0.064
					c0.075-0.1,0.269-0.123,0.335-0.209c0.113-0.146,0.217-0.312,0.266-0.521c0.029-0.021,0.064-0.037,0.095-0.053
					c0.096-0.162,0.319-0.353,0.36-0.407c0.055-0.071,0.279-0.095,0.335-0.166c0.106-0.14,0.407-0.198,0.523-0.349
					c0.007-0.01,0.282-0.1,0.628-0.202c0.104,0.018,0.22-0.02,0.354-0.1c0.084-0.024,0.167-0.048,0.252-0.069
					c0.082,0.008,0.16,0.026,0.206,0.021c0.042-0.007,0.657,0.1,0.658,0.115c0.004,0.016-0.126-0.133-0.136-0.148
					c-0.107-0.157-0.266-0.328-0.389-0.509c-0.076-0.11-0.17-0.218-0.247-0.333c-0.035-0.051-0.047-0.117-0.06-0.185
					c0.021-0.191,0.047-0.415,0.086-0.727c0.006-0.064,0.01-0.114,0.016-0.171c-0.35-0.007-0.949,0.007-0.949-0.057
					c0-0.026,0.055,0,0.082,0c0.107,0,0.546-0.018,0.877-0.048c0.033-0.35,0.033-0.593,0.031-0.81
					c-0.417-0.002-1.029,0.005-1.029-0.062c0-0.038,0.602-0.022,1.029-0.021c-0.004-0.107-0.008-0.214-0.006-0.325
					c-0.295-0.01-0.662-0.012-0.745-0.012c-0.278,0,0.315-0.131,0.757-0.215c0.004-0.068,0.011-0.137,0.021-0.215
					c0.021-0.205-0.039-0.418-0.025-0.625c0.028-0.423,0.145-0.853,0.173-1.274c0.042-0.609-0.008-1.223,0.025-1.84
					c0.052,0.01,0.108,0.01,0.179,0c0.049-0.005,0.133,0.06,0.163,0.021c0.085-0.111,0.195-0.209,0.282-0.321
					c0.009-0.014-0.006-0.931-0.047-0.962c-0.134-0.102-0.348-0.735-0.252-1.012c0.07-0.206,0.152-1.574,0.12-1.829
					c-0.021-0.158-0.01-0.579-0.128-0.67c-0.014-0.008-0.025-0.013-0.039-0.021c0-0.002,0-0.005,0-0.005
					c-0.004-0.066-0.008-0.136-0.008-0.197v-0.002c-0.019-0.031-0.045-0.058-0.074-0.078c-0.16-0.124-0.258-0.26-0.486-0.34
					C332.986,426.437,332.965,426.432,332.947,426.429L332.947,426.429z"/>
				<path fill="#6488C5" stroke="#FFFFFF" stroke-opacity="0" d="M332.982,425.874c-1.098-0.018-1.775-1.279-1.189-2.977
					c0.057-0.165,0.572-0.77,0.582-0.761c0.026,0.02-0.432,0.969-0.218,0.94c0.021-0.005,0.313-0.803,0.491-1.035
					c0.146-0.188,1.085-1.886,0.934-2c-0.049-0.04-0.053,0.979-0.043,0.974c0.127-0.087,0.729-1.382,0.69-1.688
					c-0.018-0.126-0.006-0.45,0.045-0.516c0.011-0.017-0.038-0.225-0.028-0.225c0.037-0.005,0.058,0.888,0.061,0.902
					c0.09,0.679,0.053,1.704-0.365,1.986c-0.17,0.114-0.373,0.637-0.39,0.507c-0.015-0.114,0.259-0.01,0.33-0.103
					c0.046-0.059,0.48-0.517,0.499-0.52c0.061-0.007-0.041,0.116-0.033,0.176c0.054,0.398-0.997,1.519-0.963,1.776
					c0.008,0.05,0.852-0.458,0.852-0.451c0.032,0.23-0.269,0.678-0.4,0.848c-0.072,0.098-0.17,0.431-0.186,0.311
					c-0.002-0.013,0.317-0.021,0.335-0.045c0.024-0.033,0.345-0.34,0.419-0.281c0.16,0.123,0.003,0.781-0.107,0.926
					c-0.061,0.08-0.218,0.085-0.264,0.147c-0.016,0.022-0.045,0.09-0.048,0.063c-0.018-0.119,0.972-0.219,0.652,0.199
					C334.312,425.455,333.576,425.671,332.982,425.874L332.982,425.874z"/>
				<path fill="#C8DCEB" stroke="#FFFFFF" stroke-opacity="0" d="M332.609,425.501c-0.053-0.01-0.17,0.022-0.159-0.032
					C332.459,425.414,332.652,425.536,332.609,425.501c-0.035-0.034-0.206-0.034-0.242-0.067c-0.07-0.062-0.131-0.154-0.213-0.228
					c-0.041-0.037,0.013-0.189-0.014-0.24c-0.156-0.271-0.504-1.047-0.238-1.347c0.06-0.067,0.007-0.359,0.059-0.364
					c0.037,0,0.152,0.364,0.184,0.39c0.005,0.006,0.115-0.002,0.119-0.005c0.05-0.056,0.039-0.258,0.102-0.327
					c0.199-0.224,0.305-0.593,0.514-0.828c0.243-0.273,0.242-0.613,0.432-0.824c0.018-0.022-0.033-0.079-0.005-0.082
					c0.019,0-0.098,0.316-0.102,0.329c-0.084,0.194-0.316,0.785-0.31,0.896c0.002,0.045-0.039,0.115-0.033,0.123
					c0.086,0.076,0.405-0.466,0.494-0.47c0.01,0-0.164,0.291-0.18,0.329c-0.043,0.101-0.489,1.194-0.367,1.302
					c0.021,0.02,0.57-0.518,0.574-0.47c0.006,0.09-0.409,0.957-0.301,1.055c0.04,0.032,0.754-0.463,0.818-0.407
					c0.043,0.04-0.477,0.524-0.408,0.583c0.092,0.083,0.333-0.041,0.443,0.057c0.244,0.216-0.719,0.639-0.922,0.652
					C332.945,425.559,332.672,425.509,332.609,425.501L332.609,425.501z"/>
				<path fill="#E6B35A" stroke="#FFFFFF" stroke-opacity="0" d="M341.613,418.934c-0.358,0.006-0.738,0.1-1.217,0.249
					c-0.004,0-0.007-0.003-0.01,0c-0.702,0.083-1.483,0.266-1.999,0.594c-0.212,0.033-0.56,0.252-0.829,0.478
					c-0.006,0.007-0.012,0.009-0.02,0.017c-0.065,0.047-0.148,0.116-0.281,0.203c-0.063,0.042-0.082,0.132-0.141,0.17
					c-0.682,0.453-0.92,1.279-1.104,2.004c-0.031,0.131,0.017,0.297-0.025,0.423c-0.05,0.145-0.052,0.439,0,0.594
					c0.042,0.133,0.098,0.266,0.14,0.397c0.061,0.182,0.093,0.325,0.169,0.479c0.012,0.021,0.143,0.168,0.114,0.168
					c-0.023,0,0.108-0.017,0.14,0c0.033,0.018,0.088,0.027,0.115,0c0.076-0.077,0.008-0.234-0.029-0.311
					c-0.045-0.089-0.221,0.033-0.254,0c-0.023-0.021-0.369-1.186-0.227-1.328c0.07-0.068-0.015-0.295,0.057-0.366
					c0.119-0.118,0.184-0.776,0.338-0.931c0.174-0.174,0.266-0.377,0.424-0.538c0.102-0.1,0.193-0.167,0.279-0.237
					c0.02,0.084,0.023,0.172,0.089,0.237c0.178,0.178,0.64-0.008,0.913-0.143c0.016,0,0.032,0,0.048,0
					c-0.042,0.067-0.083,0.143-0.142,0.198c-0.052,0.056-0.072,0.299-0.143,0.369c-0.027,0.028-0.076,0.418-0.17,0.508
					c-0.008,0.01-0.028,0.098-0.055,0.189c0.084,0.078,0.25,0.219,0.36,0.29c0.049-0.005,0.091,0,0.091,0.028
					c0,0.026-0.038,0.007-0.091-0.028c-0.042,0.005-0.087,0.012-0.105,0c-0.041-0.019-0.297-0.097-0.341-0.057l-0.006,0.007
					c-0.012,0.048-0.061,0.262-0.098,0.411c0.11,0.104,0.262,0.214,0.304,0.233c0.013,0.007,0.069,0.037,0.122,0.064
					c0.058,0.016,0.102,0.032,0.102,0.049c0,0.002-0.049-0.019-0.102-0.049c-0.143-0.034-0.405-0.081-0.562-0.225
					c0-0.002-0.002-0.002-0.004-0.002c-0.064-0.033-0.142-0.071-0.278-0.138c-0.075,0.34-0.106,0.685-0.041,1.004
					c0.153,0.771-0.132,1.643,0.112,2.373c0.127,0.378,0.186,0.796,0.281,1.186c0.164,0.65,0.478,1.258,0.678,1.865
					c0.123,0.364,0.158,0.897,0.135,1.386c-0.18,0.178-0.343,0.386-0.451,0.596c-0.012,0.027-0.02,0.05-0.028,0.077
					c-0.603,0-1.207-0.022-1.812-0.077l-0.157,0.2c-0.015,0-0.032-0.009-0.04,0c-0.102,0.103-0.092,0.664,0,0.758
					c0.102,0.102,0.766-0.038,0.918-0.038c0.364,0,0.788,0.012,1.158-0.053c0.098,0.247,0.227,0.424,0.399,0.568
					c0.013,0.226,0.005,0.443-0.065,0.648c-0.189,0.572-0.09,1.234-0.281,1.807c-0.15,0.455-0.352,0.887-0.508,1.356
					c-0.15,0.45-0.29,1.058-0.566,1.469c-0.31,0.468-0.701,0.954-0.959,1.47c-0.18,0.355-0.568,0.625-0.791,0.961
					c-0.34,0.509-0.565,0.904-0.96,1.298c-0.223,0.226-0.884,1.089-1.017,1.356c-0.094,0.187-0.267,0.347-0.279,0.542
					c0.153-0.148,0.572-0.447,0.674-0.6c0.442-0.662,0.994-0.992,1.525-1.524c0.184-0.184,0.547-0.263,0.734-0.451
					c0.376-0.379,0.846-0.864,1.469-1.073c0.354-0.12,0.739-0.174,1.073-0.34c0.188-0.095,0.962-0.058,1.073-0.169
					c0.045-0.045-0.156-0.24-0.379-0.477c-0.092,0.006-0.18,0.021-0.242,0.051c-0.127,0.065-0.502,0.179-0.508,0.172
					c-0.064-0.064,0.377-0.262,0.615-0.376c-0.145-0.171-0.277-0.349-0.33-0.514c-0.222,0.077-0.519,0.245-0.541,0.267
					c-0.057,0.061-0.141,0.103-0.218,0.157c-0.036,0.048-0.082,0.098-0.12,0.098c-0.013,0,0.019-0.02,0.027-0.028
					c0.027-0.026,0.061-0.048,0.093-0.069c0.022-0.031,0.045-0.066,0.051-0.071c0.149-0.152,0.356-0.216,0.507-0.367l0.18-0.178
					c0-0.003,0-0.003,0-0.005c0.012-0.049,0.037-0.09,0.074-0.129c0.184-0.182,0.037-0.771,0.227-0.96
					c0.193-0.192,0.205-0.601,0.395-0.79c0.521-0.523,0.681-1.359,1.073-2.147c0.11-0.222,0.001-0.568,0.114-0.789
					c0.07-0.143,0.056-0.323,0.059-0.492c0.105-0.05,0.247-0.108,0.32-0.178c0.206-0.212,0.298-0.461,0.304-0.722
					c0.606-0.038,1.417,0.042,1.851,0.042c0.1,0,0.303-0.018,0.529-0.05c0.011,0.305,0.043,0.572,0.1,0.748
					c0.061,0.179,0.084,0.409,0.084,0.594c0,0.094,0.049,0.2,0.061,0.25c0.008-0.05,0.053-0.31,0.053-0.335
					c0-0.277,0.086-0.624,0.086-0.932c0-0.123,0.006-0.25,0.011-0.382c-0.001,0,0-0.003,0-0.003
					c-0.015-0.023-0.029-0.042-0.041-0.065c-0.042-0.088-0.146-0.131-0.229-0.173c0.073-0.01,0.14-0.021,0.145-0.027
					c0.036-0.035,0.096-0.027,0.171-0.027c0.029,0,0.08-0.034,0.084-0.027c0.059,0.057,0.077,0.275,0.113,0.31
					c0.043,0.045,0.408-0.134,0.479-0.17c0.141-0.07,0.724-0.045,0.791-0.112c0.044-0.041-0.135-0.022-0.141-0.027
					c-0.07-0.073-0.26-0.059-0.366-0.113c-0.104-0.053-0.579-0.255-0.621-0.255c-0.095,0-0.216,0.188-0.255,0.227
					c-0.006,0.007-0.161-0.031-0.289-0.059c0.033-0.029,0.077-0.069,0.09-0.083c0.036-0.035,0.075-0.063,0.115-0.095
					c-0.01,0-0.016-0.002-0.025,0c0.006-0.491-0.035-0.974-0.258-1.346c-0.049,0.135-0.121,0.729-0.148,1.355
					c-0.838,0.002-1.688,0.043-2.541,0.088c-0.102-0.214-0.248-0.417-0.421-0.586c-0.173-0.844-0.476-1.703-0.675-2.101
					c-0.117-0.234-0.105-0.55-0.228-0.79c-0.625-1.255-1.608-2.596-0.845-4.123c0.105-0.21,0.068-0.577,0.226-0.734
					c0.319-0.319,0.544-0.753,1.073-1.017c0.348-0.173,0.713-0.565,1.072-0.565c0.215,0,0.65-0.183,0.904-0.057
					c0.521,0.262,1.039,0.529,1.355,0.847c0.115,0.117,0.139,0.447,0.227,0.623c0.186,0.371-0.113,1.582,0.112,2.033
					c0.03,0.058,0.047,0.125,0.054,0.194c-0.031,0.003-0.062,0.005-0.096,0.005c0.105,0.073,0.191,0.148,0.24,0.195
					c0.008,0.01,0.035,0.003,0.057,0c-0.01,0.005-0.02,0.015-0.029,0.021c-0.076,0.018-0.136,0.041-0.142,0.065
					c-0.122-0.124-0.233-0.174-0.338-0.174c-0.175,0-0.331,0.136-0.479,0.286c-0.205,0.205-0.34,0.761-0.34,1.101
					c0,0.099,0,0.708-0.027,0.734c-0.048,0.047-0.082,0.588-0.142,0.651c-0.04,0.037-0.169,0.353-0.169,0.364
					c0,0.032,0.129-0.191,0.311-0.279c0.122-0.065,0.237-0.162,0.35-0.276c0.092-0.075,0.172-0.163,0.188-0.175
					c0.316-0.318,0.852-0.685,1.186-1.02c0.209-0.208,0.184-0.481,0.311-0.733c0.026-0.053-0.028-0.145,0-0.197
					c0.148-0.297-0.047-0.415-0.28-0.436c0.218-0.441,0.269-1.087,0.364-1.568c0.035-0.081-0.007-1.041-0.225-1.697
					c-0.242-0.726-0.276-1.707-1.018-2.201C342.739,419.149,342.205,418.927,341.613,418.934L341.613,418.934z M343.785,433.573
					c0,0.007-0.002,0.033-0.002,0.033C343.792,433.606,343.791,433.596,343.785,433.573L343.785,433.573z M332.912,443.694
					c-0.035,0.034-0.059,0.063-0.059,0.077c0,0.038,0.055-0.016,0.055-0.055C332.908,443.708,332.912,443.701,332.912,443.694
					L332.912,443.694z M339.477,430.716c0.01-0.005,0.017-0.005,0.021,0c0.065,0.066,0.375,0.247,0.479,0.299
					c0.123,0.062,0.293,0.231,0.361,0.295c0.003,0.007,0,0.052,0,0.062v0.56c0,0.053,0.063,0.293,0.016,0.34
					c-0.104,0.104-0.408,0.293-0.577,0.378c-0.041,0.019-0.489,0.291-0.52,0.262c-0.107-0.107-0.237-0.24-0.378-0.4
					c-0.065-0.072-0.314-0.295-0.361-0.34c-0.034-0.032,0.011-0.802,0.022-0.899c0.175-0.218,0.424-0.261,0.578-0.378
					C339.142,430.87,339.395,430.732,339.477,430.716L339.477,430.716z"/>
				<path fill="#E6B35A" stroke="#FFFFFF" stroke-opacity="0" d="M335.984,430.306c-0.443,0.176-0.7,0.612-0.799,1.105
					c-0.082,0.006-0.164,0.018-0.243,0.051c-0.022,0.159-0.047,0.262,0,0.342c0.007,0.01,0.089,0.003,0.198-0.013
					c-0.005,0.091,0.001,0.186,0.006,0.274c-0.086,0.011-0.172,0.031-0.262,0.076c0,0.116,0.015,0.297,0.086,0.297
					c0.002,0,0.123-0.038,0.213-0.064c0.054,0.287,0.16,0.549,0.311,0.741c0.078,0.102,0.33,0.453,0.469,0.347
					c-0.161-0.262-0.31-0.456-0.42-0.768c-0.029-0.078-0.042-0.235-0.047-0.415c0.067-0.021,0.18-0.053,0.182-0.055
					c0.072-0.056,0.535,0.075,0.535-0.043c0-0.071,0.029-0.262,0.029-0.295c0-0.058-0.076,0.043-0.114,0.043
					c-0.049,0-0.28-0.05-0.31,0c-0.06,0.086-0.193,0.113-0.322,0.124c0.004-0.107,0.013-0.214,0.022-0.323
					c0.21-0.034,0.413-0.074,0.47-0.074c0.039,0,0.227,0.045,0.254,0c0.04-0.068-0.055-0.007-0.029-0.095
					c0.015-0.052,0.057-0.085,0.057-0.145c0-0.051-0.055,0.045-0.085,0.045h-0.423c-0.069,0-0.143-0.019-0.209-0.033
					c0.025-0.152,0.062-0.275,0.106-0.34c0.028-0.043-0.007-0.126,0.021-0.169C335.822,430.707,335.873,430.516,335.984,430.306
					L335.984,430.306z"/>
				<path fill="#E6B35A" stroke="#FFFFFF" stroke-opacity="0" d="M338.75,431.754c0.021-0.109,0.224-0.58,0.273-0.57
					c0.055,0.007,0.146,0,0.217-0.01c0.119-0.021,0.221-0.08,0.353-0.059c0.005,0,0.434,0.593,0.436,0.597
					c0,0.002-0.126,0.263-0.148,0.304c-0.058,0.115-0.081,0.259-0.1,0.37c-0.002,0.015-0.171-0.026-0.196-0.028
					c-0.176-0.029-0.32,0.078-0.478,0.052C339.099,432.409,338.858,431.906,338.75,431.754L338.75,431.754z"/>
				<path fill="#E6B35A" stroke="#FFFFFF" stroke-opacity="0" d="M346.369,422.928c-0.004,0-0.002,0.033,0,0.076
					C346.378,422.959,346.38,422.928,346.369,422.928L346.369,422.928z M346.369,423.004c-0.012,0.06-0.035,0.15-0.053,0.251
					c0.016-0.038,0.034-0.072,0.053-0.093C346.377,423.156,346.373,423.07,346.369,423.004L346.369,423.004z M346.316,423.255
					c-0.07,0.167-0.11,0.483-0.11,0.628c0,0.311-0.548,2.156-0.751,2.387c-0.002-0.009-0.006-0.071-0.008-0.071
					c-0.037,0-0.023,0.062-0.023,0.11c-0.131,0.137-0.274,0.34-0.389,0.505c-0.218,0.212-0.447,0.409-0.703,0.662
					c-0.041,0.043-0.178,0.061-0.238,0.122c-0.056,0.055,0.252,0.814,0.277,0.841c0.002,0.002,0.008,0.002,0.012,0.002
					c0.323-0.163,0.785-0.445,0.785-0.445c0.019,0.021-0.177,0.223-0.195,0.24c-0.122,0.122-0.165,0.401-0.283,0.519
					c-0.016,0.017-0.006,0.202,0.008,0.409c0.312,0.725,0.762,1.605,1.124,2.275c0.283,0.054,0.573,0.092,0.647,0.083
					c-0.044,0.025-0.139,0.107-0.143,0.112c-0.026,0.027-0.17,0.011-0.195,0.037c-0.016,0.016-0.069,0.06-0.127,0.1
					c0.215,0.385,0.376,0.648,0.418,0.673c0.888,0.461-0.884,1.574-0.438,1.81c0.387,0.202,2.541,0.62,2.662,1.005
					c0.102,0.324-3.397,4.795-3.895,5.742c-0.207,0.397-2.082,3.506-1.986,3.809c0.006,0.016,0.592-0.77,0.725-0.898
					c0.779-0.753,1.465-1.117,2.254-1.882c0.464-0.448,1.169-0.793,1.501-0.945c-0.325,0.176-0.638,0.516-0.737,0.706
					c-0.248,0.475-0.893,0.864-1.287,1.242c-1.179,1.141-1.926,2.717-2.594,3.997c-0.078,0.149-0.84,1.472-0.285,1.761
					c1.43,0.747,2.58-0.087,3.268-1.861c-0.228,0.438-0.643,0.495-0.771,0.744c-0.244,0.471-1.922,0.69-1.822,0.068
					c0.357-2.212,4.406-5.938,6.666-8.117c0.236-0.23,1.561-1.038,1.638-1.186c0.032-0.062,0.007-0.156,0.003-0.235
					c-0.289,0.19-0.924,0.527-1.225,0.62c-0.312,0.1-3.021,1.579-3.057,1.464c-0.059-0.184,0.221-0.316,0.358-0.45
					c0.938-0.904,1.743-2.773,2.952-3.939c1.562-1.507,2.839-4.693,4.012-6.76c-0.212-0.05-0.436-0.086-0.387-0.134
					c0.032-0.033,0.271-0.045,0.517-0.09c0.056-0.095,0.114-0.195,0.173-0.285c-0.085,0.002-0.158,0.007-0.181,0.007h-0.25
					c0.083-0.014,0.22-0.057,0.222-0.057c0.043,0,0.148-0.007,0.248-0.014c0.102-0.162,0.204-0.314,0.307-0.452
					c-0.202-0.14-0.484,0.043-0.752,0.043c-0.007,0-0.015-0.002-0.021-0.005c-0.023,0.012-0.035,0.015-0.035,0.005
					c0-0.015,0.016-0.007,0.035-0.005c0.068-0.033,0.23-0.135,0.388-0.135c0.092,0,0.335-0.04,0.53-0.093
					c0.01-0.013,0.02-0.024,0.027-0.035c0.306-0.157,0.857-0.442,0.884-0.467c0.091-0.092,0.44-0.643,0.48-0.762
					c0.04-0.121,0.208-0.228,0.28-0.34c0.144-0.214,0.312-0.426,0.424-0.65c0.096-0.183,0.292-0.913,0.367-0.987
					c0.016-0.016,0.199-0.452,0.171-0.479c-0.086-0.089-1.232-0.204-1.413-0.116c-0.086,0.045-0.538,0.199-0.593,0.199
					c-0.028,0-0.31,0.141-0.31,0.168c0,0.016,0.137-0.052,0.141-0.056c0.055-0.055,0.208-0.01,0.254-0.057
					c0.103-0.103,0.864-0.039,0.932,0.027c0.027,0.029,0.086,0.029,0.113,0.058c0.107,0.109-0.053,0.354-0.177,0.506
					c-0.161,0.007-0.317,0.017-0.43,0.052c-1.21,0.38-2.849,0.326-3.412,1.407c-0.699,1.341-0.553,3.739-0.939,4.479
					c-0.284,0.549-0.916,0.224-1.103,0.086c0.035,0.23-0.307,1.147-0.337,1.202c-0.163,0.314-0.762,2.082-0.843,2.108
					c-0.299,0.094-2.213-3.423-2.761-3.99c-0.192-0.197-0.043-1.296-0.276-1.418c-0.375-0.196,0.14-1.886-0.221-1.772
					c-0.184,0.057-0.471,0.117-0.77,0.193c-0.025-0.076-0.055-0.151-0.078-0.201c-0.014-0.027-0.042-0.243-0.066-0.46
					c0.043-0.083,0.084-0.153,0.107-0.178c0.019-0.02,0.047-0.03,0.065-0.049c-0.002,0.019,0.002,0.035,0.013,0.049
					c0.033,0.033,0.088,0.048,0.121,0.081c0.174,0.176,0.725-0.206,0.76-0.24c0.11-0.113-0.169-0.453-0.199-0.479
					c-0.027-0.028,0.027-0.133,0-0.159c-0.236-0.239-0.12-0.793-0.12-1.196c0-0.348,0.039-0.64,0.039-0.922
					C346.288,423.434,346.302,423.341,346.316,423.255L346.316,423.255z M350.854,430.956c-0.008-0.042-0.027-0.064-0.061-0.055
					C350.785,430.904,350.812,430.925,350.854,430.956L350.854,430.956z M351.322,438.202c0.16-0.104,0.219-0.168,0.054-0.116
					C351.328,438.101,351.319,438.147,351.322,438.202L351.322,438.202z M345.609,446.928c0.103-0.194-0.678,0.155-0.563,0.342
					C345.158,447.458,345.424,447.045,345.609,446.928L345.609,446.928z M354.18,428.628c0.015-0.003,0.037,0.007,0.051,0.007
					c-0.031,0.006-0.057,0.008-0.057,0C354.174,428.63,354.178,428.628,354.18,428.628L354.18,428.628z M346.483,431.512
					c0.003,0,0.007-0.002,0.007,0c0,0.005-0.007,0.007-0.016,0.01C346.478,431.519,346.48,431.514,346.483,431.512L346.483,431.512z
					"/>
			</g>
		</g>
	</g>
</g>
</svg>
