<?xml version="1.0" encoding="utf-8"?>
<!-- Generator: Adobe Illustrator 15.0.0, SVG Export Plug-In . SVG Version: 6.00 Build 0)  -->
<!DOCTYPE svg PUBLIC "-//W3C//DTD SVG 1.1//EN" "http://www.w3.org/Graphics/SVG/1.1/DTD/svg11.dtd">
<svg version="1.1" id="Layer_1" xmlns="http://www.w3.org/2000/svg" xmlns:xlink="http://www.w3.org/1999/xlink" x="0px" y="0px"
	 width="612px" height="792px" viewBox="0 0 612 792" enable-background="new 0 0 612 792" xml:space="preserve">
<g>
	<polygon fill="#FFFFFF" stroke="#D1D3D4" stroke-miterlimit="10" points="386.43,442.039 305.716,488.636 225,442.039 225,348.837 
		305.716,302.234 386.43,348.837 	"/>
	<g>
		<polygon fill="#F26724" points="379.51,438.044 305.716,480.648 231.917,438.044 231.917,352.831 305.716,310.222 379.51,352.831 
					"/>
		<path fill="#FFFFFF" d="M292.763,413.861h22.577v-6.141h-15.604v-9.52h14.387v-6.143h-14.387v-8.906h15.604v-6.141h-22.577
			V413.861L292.763,413.861z M345.495,403.846c0-7.359-0.499-8.963-10.403-11.342c-6.364-1.55-6.474-1.66-6.474-5.867
			c0-3.207,0.829-4.204,5.534-4.204c3.209,0,6.807,0.443,9.848,1.106l0.773-5.864c-3.65-0.831-7.524-1.216-10.732-1.216
			c-9.351,0-12.396,3.316-12.396,10.014c0,7.802,1.22,9.516,10.127,11.508c6.639,1.438,6.75,1.771,6.75,5.865
			c0,3.541-0.828,4.592-5.864,4.592c-3.65,0-6.972-0.664-10.403-1.715l-1.217,5.479c2.436,1.16,7.304,2.213,11.511,2.213
			C343.447,414.414,345.495,410.816,345.495,403.846L345.495,403.846L345.495,403.846z M358.329,390.124
			c0-5.644,2.712-6.751,9.241-6.751c1.162,0,3.597,0.166,5.2,0.5l0.444-5.645c-1.66-0.389-4.318-0.664-6.364-0.664
			c-10.069,0-15.272,3.098-15.272,12.836v13.445c0,6.364,1.883,10.568,11.4,10.568c8.688,0,11.343-4.316,11.343-10.07v-2.655
			c0-6.364-2.712-9.13-9.405-9.13c-2.38,0-4.65,0.33-6.587,0.995V390.124L358.329,390.124z M363.863,398.365
			c2.436,0,3.707,0.83,3.707,3.49v2.711c0,2.82-1.104,4.037-4.592,4.037c-3.486,0-4.649-0.994-4.649-4.037v-5.037
			C359.879,398.865,361.872,398.365,363.863,398.365L363.863,398.365L363.863,398.365z"/>
	</g>
</g>
</svg>
