<?xml version="1.0" encoding="utf-8"?>
<!-- Generator: Adobe Illustrator 15.0.0, SVG Export Plug-In . SVG Version: 6.00 Build 0)  -->
<!DOCTYPE svg PUBLIC "-//W3C//DTD SVG 1.1//EN" "http://www.w3.org/Graphics/SVG/1.1/DTD/svg11.dtd">
<svg version="1.1" id="Layer_1" xmlns="http://www.w3.org/2000/svg" xmlns:xlink="http://www.w3.org/1999/xlink" x="0px" y="0px"
	 width="612px" height="792px" viewBox="0 0 612 792" enable-background="new 0 0 612 792" xml:space="preserve">
<g>
	<polygon fill="#FFFFFF" stroke="#D1D3D4" stroke-miterlimit="10" points="386.629,442.328 305.914,488.928 225.199,442.328 
		225.199,349.13 305.914,302.526 386.629,349.13 	"/>
	<g>
		<defs>
			<polygon id="SVGID_1_" points="379.709,438.336 305.914,480.938 232.117,438.336 232.117,353.121 305.914,310.514 
				379.709,353.121 			"/>
		</defs>
		<clipPath id="SVGID_2_">
			<use xlink:href="#SVGID_1_"  overflow="visible"/>
		</clipPath>
		<g clip-path="url(#SVGID_2_)">
			<defs>
				<rect id="SVGID_3_" x="174.967" y="308.566" width="261.893" height="174.319"/>
			</defs>
			<clipPath id="SVGID_4_">
				<use xlink:href="#SVGID_3_"  overflow="visible"/>
			</clipPath>
			<rect x="174.967" y="307.454" clip-path="url(#SVGID_4_)" fill="#DA1F27" width="261.479" height="180.353"/>
			<rect x="175.378" y="369.785" clip-path="url(#SVGID_4_)" fill="#010101" width="261.481" height="58.107"/>
			<path clip-path="url(#SVGID_4_)" fill="#010101" d="M251.824,380.351l-36.979,36.979 M214.845,380.351l36.979,36.979"/>
			<path clip-path="url(#SVGID_4_)" fill="none" stroke="#FFFFFF" stroke-width="17.232" d="M248.495,380.351l-36.981,36.979
				 M211.514,380.351l36.981,36.979"/>
			<path clip-path="url(#SVGID_4_)" fill="#010101" d="M399.414,380.351l-36.978,36.979 M362.437,380.351l36.978,36.979"/>
			<path clip-path="url(#SVGID_4_)" fill="none" stroke="#FFFFFF" stroke-width="17.232" d="M399.414,380.351l-36.978,36.979
				 M362.437,380.351l36.978,36.979"/>
			<path clip-path="url(#SVGID_4_)" fill="#FFFFFF" d="M317.445,393.944c0.121-2.805-0.696-5.059-1.802-6.864
				c-1.104-1.805-3.11-3.584-5.317-3.382c-1.318,0.117-2.107,0.614-2.408,1.322c-0.299,0.707-0.592,2.302-0.592,2.981v16.881
				c3.946-0.428,6.378-2.283,8.234-5.211C316.598,398.032,317.364,395.858,317.445,393.944"/>
			<path clip-path="url(#SVGID_4_)" fill="#FFFFFF" d="M306.121,373.087c-14.32,0-25.93,11.424-25.93,25.523
				c0,13.092,9.982,23.848,22.881,25.313c0.639,0.033,1.007-0.028,1.309-0.285c0.246-0.209,0.355-0.557,0.355-0.858l0.014-15.207
				c-6.983-0.725-12.567-6.479-12.479-13.546c0.08-6.747,4.729-12.155,10.884-13.429c0.163-0.033,0.271-0.063,0.359,0.021
				c0.094,0.095,0.041,0.325,0.041,0.325l-0.466,2.262c0,0-0.031,0.14-0.073,0.184c-0.042,0.042-0.098,0.061-0.159,0.083
				c-2.675,0.835-5.093,2.641-6.259,4.83c-0.972,1.827-1.798,3.188-1.798,5.672c0,5.351,4.631,10.251,9.564,10.916v-16.89
				c0-1.762,0.285-3.826,1.323-5.234c0.81-1.098,2.318-1.771,4.543-1.771c3.202,0,7.088,2.346,9.023,7.424
				c0.585,1.535,0.954,3.478,0.949,5.574c-0.017,7.05-5.499,12.812-12.447,13.57l-0.008,15.218c0,0.405,0.132,0.702,0.364,0.885
				c0.277,0.216,0.518,0.306,1.301,0.238c0.295-0.025,0.847-0.096,1.086-0.138c12.232-2.045,21.542-12.534,21.542-25.157
				C332.042,384.511,320.438,373.087,306.121,373.087"/>
		</g>
	</g>
</g>
</svg>
