<?xml version="1.0" encoding="utf-8"?>
<!-- Generator: Adobe Illustrator 15.0.0, SVG Export Plug-In . SVG Version: 6.00 Build 0)  -->
<!DOCTYPE svg PUBLIC "-//W3C//DTD SVG 1.1//EN" "http://www.w3.org/Graphics/SVG/1.1/DTD/svg11.dtd">
<svg version="1.1" id="Layer_1" xmlns="http://www.w3.org/2000/svg" xmlns:xlink="http://www.w3.org/1999/xlink" x="0px" y="0px"
	 width="612px" height="792px" viewBox="0 0 612 792" enable-background="new 0 0 612 792" xml:space="preserve">
<g>
	<polygon fill="#FFFFFF" stroke="#D1D3D4" stroke-miterlimit="10" points="386.628,442.037 305.914,488.636 225.199,442.037 
		225.199,348.836 305.914,302.233 386.628,348.836 	"/>
	<g>
		<polygon stroke="#000000" stroke-miterlimit="10" points="379.879,438.141 305.912,480.84 231.949,438.141 231.949,352.735 
			305.912,310.031 379.879,352.735 		"/>
		<g transform="translate(88.310078, 110.139535)">
			<path fill="#F3DA48" d="M228.914,297.95c-4.558,1.497-9.372-1.469-10.083-6.216c-0.379-2.521,0.004-4.887,1.645-6.898
				c1.993-2.452,4.62-3.386,7.696-2.711c3.14,0.693,5.03,2.773,5.834,5.848c0.183,0.695,0.218,1.433,0.32,2.149
				C234.263,293.847,232.192,296.87,228.914,297.95L228.914,297.95z M238.096,281.78c-2.943-3.734-6.938-5.303-11.676-5.438
				c-0.502,0.035-1.081,0.066-1.66,0.125c-6.609,0.635-12.031,5.482-12.616,12.282c-0.394,4.579,0.959,8.556,4.483,11.584
				c3.979,3.408,8.665,4.299,13.663,3.083C241.281,300.751,243.504,288.648,238.096,281.78L238.096,281.78z"/>
			<path fill="#F3DA48" d="M194.284,281.949h4.042v16.379h-3.818v4.913h14.194v-4.913h-3.818v-21.293h-10.599V281.949"/>
			<path fill="#F3DA48" d="M198.325,266.658h6.558v5.778h-6.558V266.658z"/>
		</g>
	</g>
</g>
</svg>
