<?xml version="1.0" encoding="utf-8"?>
<!-- Generator: Adobe Illustrator 15.0.0, SVG Export Plug-In . SVG Version: 6.00 Build 0)  -->
<!DOCTYPE svg PUBLIC "-//W3C//DTD SVG 1.1//EN" "http://www.w3.org/Graphics/SVG/1.1/DTD/svg11.dtd">
<svg version="1.1" id="Layer_1" xmlns="http://www.w3.org/2000/svg" xmlns:xlink="http://www.w3.org/1999/xlink" x="0px" y="0px"
	 width="612px" height="792px" viewBox="0 0 612 792" enable-background="new 0 0 612 792" xml:space="preserve">
<g>
	<polygon fill="#FFFFFF" stroke="#D1D3D4" stroke-miterlimit="10" points="386.344,442.781 305.627,489.381 224.913,442.781 
		224.913,349.578 305.627,302.978 386.344,349.578 	"/>
	<g>
		<polygon fill="#F6DF1B" points="379.425,438.785 305.627,481.391 231.832,438.785 231.832,353.573 305.627,310.966 
			379.425,353.573 		"/>
		<path fill="#010101" d="M285.215,436.781l9.779-5.92c1.888,3.348,3.605,6.178,7.722,6.178c3.948,0,6.438-1.545,6.438-7.551v-40.84
			h12.011v41.01c0,12.441-7.293,18.104-17.934,18.104c-9.607,0-15.186-4.977-18.016-10.982"/>
		<path fill="#010101" d="M327.688,435.494l9.78-5.662c2.573,4.203,5.921,7.293,11.842,7.293c4.976,0,8.15-2.49,8.15-5.92
			c0-4.119-3.261-5.578-8.751-7.98l-3.002-1.289c-8.666-3.688-14.417-8.322-14.417-18.104c0-9.007,6.866-15.872,17.591-15.872
			c7.637,0,13.126,2.66,17.073,9.61l-9.35,6.004c-2.062-3.686-4.291-5.146-7.724-5.146c-3.519,0-5.748,2.23-5.748,5.146
			c0,3.605,2.229,5.064,7.378,7.295l3.001,1.287c10.21,4.377,15.96,8.838,15.96,18.877c0,10.811-8.494,16.729-19.904,16.729
			C338.413,447.762,331.206,442.441,327.688,435.494"/>
	</g>
</g>
</svg>
