<?xml version="1.0" encoding="utf-8"?>
<!-- Generator: Adobe Illustrator 15.0.0, SVG Export Plug-In . SVG Version: 6.00 Build 0)  -->
<!DOCTYPE svg PUBLIC "-//W3C//DTD SVG 1.1//EN" "http://www.w3.org/Graphics/SVG/1.1/DTD/svg11.dtd">
<svg version="1.1" id="Layer_1" xmlns="http://www.w3.org/2000/svg" xmlns:xlink="http://www.w3.org/1999/xlink" x="0px" y="0px"
	 width="612px" height="792px" viewBox="0 0 612 792" enable-background="new 0 0 612 792" xml:space="preserve">
<g>
	<polygon fill="#FFFFFF" stroke="#D1D3D4" stroke-miterlimit="10" points="387.123,442.349 306.409,488.946 225.695,442.349 
		225.695,349.145 306.409,302.545 387.123,349.145 	"/>
	<polygon fill="#6DBF51" points="380.205,438.355 306.409,480.959 232.613,438.355 232.613,353.141 306.409,310.532 
		380.205,353.141 	"/>
	<polygon fill="#DCE11F" points="374.713,435.184 306.409,474.616 238.106,435.184 238.106,356.312 306.409,316.875 
		374.713,356.312 	"/>
	<g id="Ttv91L.tif">
		<g>
			<path fill-rule="evenodd" clip-rule="evenodd" fill="#EC008C" d="M305.802,342.588c1.113,0,2.227,0,3.34,0
				c1.854,0.707,4.449,2.493,4.861,5.468c0.678,4.901-2.557,5.018-3.342,7.898c-1.725,6.332,2.643,14.5-3.342,14.276
				c-5.129-0.192-2.303-9.322-3.037-14.58c-1.453-1.845-3.342-3.536-3.342-6.379C300.942,345.929,303.255,343.798,305.802,342.588z"
				/>
			<path fill-rule="evenodd" clip-rule="evenodd" fill="#EC008C" d="M357.441,386.633c0,14.074,0,28.148,0,42.223
				c-34.021,0-68.042,0-102.063,0c0-14.074,0-28.148,0-42.223c1.388-5.453,5.083-11.219,11.847-12.15c6.038-0.832,12.986,0,19.743,0
				c12.482,0,27.278,0,39.489,0c7.027,0,14.076-0.857,19.744,0C352.594,375.449,356.402,381.46,357.441,386.633z M274.515,397.568
				c0.058,5.327,5.468,10.152,11.239,9.113c7.145-1.288,8.896-11.686,4.253-16.1c-1.505-1.429-5.089-2.28-6.987-2.126
				C277.667,388.891,274.458,392.331,274.515,397.568z M321.293,397.568c0.023,3.922,2.996,8.329,6.988,9.113
				c7.451,1.463,11.627-4.896,11.238-10.024c-0.369-4.878-4.225-8.648-9.721-8.202C324.482,388.888,321.264,392.286,321.293,397.568
				z"/>
			<path fill-rule="evenodd" clip-rule="evenodd" fill="#EC008C" d="M274.515,432.5c0.073-0.02,0.033-0.283,0.304-0.303
				c10.845-0.797,22.084,0,35.236,0c5.219,0,11.945,0,17.619,0c5.959,0,13.842-1.09,13.363,3.949
				c-0.406,4.291-9.809,3.036-15.795,3.036c-13.057,0-24.253,0-37.666,0c-5.312,0-15.237,1.198-16.1-2.43
				C270.78,433.811,272.586,433.012,274.515,432.5z"/>
			<path fill-rule="evenodd" clip-rule="evenodd" fill="#EC008C" d="M328.584,448.903c-14.682,0-29.364,0-44.045,0
				c-1.077-0.741-2.928-1.65-2.43-4.253c0.578-3.018,6.053-2.43,10.936-2.43c9.254,0,18.022,0,27.034,0
				c4.9,0,10.514-0.759,10.936,2.734C331.314,447.434,330.023,447.789,328.584,448.903z"/>
		</g>
	</g>
</g>
</svg>
