<?xml version="1.0" encoding="utf-8"?>
<!-- Generator: Adobe Illustrator 15.0.0, SVG Export Plug-In . SVG Version: 6.00 Build 0)  -->
<!DOCTYPE svg PUBLIC "-//W3C//DTD SVG 1.1//EN" "http://www.w3.org/Graphics/SVG/1.1/DTD/svg11.dtd">
<svg version="1.1" id="Layer_1" xmlns="http://www.w3.org/2000/svg" xmlns:xlink="http://www.w3.org/1999/xlink" x="0px" y="0px"
	 width="612px" height="792px" viewBox="0 0 612 792" enable-background="new 0 0 612 792" xml:space="preserve">
<g>
	<polygon fill="#FFFFFF" stroke="#D1D3D4" stroke-miterlimit="10" points="386.914,442.609 306.198,489.207 225.484,442.609 
		225.484,349.408 306.198,302.805 386.914,349.408 	"/>
	<g>
		<path fill="#8EC74E" d="M299.583,316.941c4.007-2.292,9.226-2.303,13.229,0c20.138,11.38,40.283,22.741,60.419,34.126
			c3.786,2.135,6.32,6.347,6.28,10.712v68.461c0.028,4.545-2.754,8.861-6.751,10.944c-20.071,11.317-40.135,22.648-60.201,33.966
			c-4.09,2.337-9.412,2.157-13.375-0.373c-6.016-3.488-12.045-6.959-18.062-10.445c-1.231-0.734-2.617-1.318-3.486-2.508
			c0.77-1.036,2.14-1.164,3.255-1.615c2.513-0.801,4.82-2.08,7.126-3.328c0.583-0.396,1.296-0.244,1.856,0.112
			c5.145,2.952,10.246,5.987,15.41,8.909c1.1,0.637,2.214-0.207,3.158-0.731c19.697-11.132,39.416-22.224,59.11-33.358
			c0.729-0.354,1.133-1.126,1.075-1.926c0.013-22.585,0.002-45.171,0.006-67.756c0.083-0.906-0.44-1.741-1.262-2.113
			c-20.002-11.266-39.994-22.545-59.993-33.812c-0.715-0.487-1.641-0.491-2.356-0.005c-19.999,11.272-39.987,22.564-59.986,33.828
			c-0.816,0.373-1.367,1.193-1.27,2.103c0.005,22.584,0,45.171,0,67.76c-0.068,0.799,0.36,1.556,1.088,1.9
			c5.336,3.025,10.681,6.033,16.021,9.047c3.009,1.619,6.703,2.582,10.017,1.342c2.925-1.047,4.974-4.033,4.92-7.14
			c0.027-22.453-0.015-44.91,0.021-67.356c-0.072-0.998,0.872-1.823,1.841-1.727c2.563-0.019,5.133-0.036,7.695,0.006
			c1.072-0.025,1.806,1.048,1.675,2.053c-0.011,22.595,0.029,45.188-0.017,67.784c0.005,6.022-2.468,12.573-8.04,15.521
			c-6.861,3.553-15.342,2.799-22.121-0.609c-5.866-2.931-11.469-6.386-17.233-9.523c-4.004-2.076-6.773-6.407-6.747-10.949v-68.461
			c-0.042-4.454,2.593-8.744,6.498-10.847C259.453,339.605,279.52,328.273,299.583,316.941L299.583,316.941z"/>
		<path fill="#8EC74E" d="M317.092,364.365c8.752-0.563,18.124-0.335,26.001,3.978c6.097,3.306,9.477,10.24,9.583,17.014
			c-0.168,0.915-1.123,1.419-1.996,1.356c-2.538-0.002-5.078,0.036-7.619-0.019c-1.076,0.042-1.701-0.951-1.84-1.903
			c-0.729-3.242-2.496-6.452-5.547-8.014c-4.684-2.346-10.115-2.229-15.223-2.18c-3.729,0.2-7.736,0.522-10.895,2.715
			c-2.426,1.661-3.163,5.014-2.297,7.712c0.815,1.939,3.055,2.565,4.885,3.142c10.547,2.758,21.728,2.484,32.072,6.115
			c4.285,1.48,8.477,4.358,9.94,8.843c1.918,6.01,1.077,13.195-3.199,18.022c-3.469,3.972-8.52,6.132-13.558,7.306
			c-6.701,1.494-13.658,1.533-20.465,0.869c-6.4-0.729-13.061-2.41-18.001-6.771c-4.226-3.67-6.287-9.386-6.083-14.904
			c0.048-0.929,0.976-1.58,1.87-1.503c2.557-0.021,5.114-0.026,7.671,0.003c1.021-0.072,1.778,0.811,1.83,1.773
			c0.472,3.089,1.633,6.33,4.327,8.162c5.197,3.351,11.719,3.122,17.672,3.216c4.93-0.22,10.465-0.286,14.487-3.543
			c2.124-1.86,2.751-4.97,2.179-7.644c-0.621-2.259-2.984-3.312-5.015-4c-10.412-3.294-21.715-2.1-32.027-5.823
			c-4.188-1.479-8.234-4.277-9.842-8.58c-2.245-6.087-1.217-13.616,3.507-18.278C304.118,366.789,310.77,365.004,317.092,364.365
			L317.092,364.365z"/>
	</g>
</g>
</svg>
