<?xml version="1.0" encoding="utf-8"?>
<!-- Generator: Adobe Illustrator 15.0.0, SVG Export Plug-In . SVG Version: 6.00 Build 0)  -->
<!DOCTYPE svg PUBLIC "-//W3C//DTD SVG 1.1//EN" "http://www.w3.org/Graphics/SVG/1.1/DTD/svg11.dtd">
<svg version="1.1" id="Layer_1" xmlns="http://www.w3.org/2000/svg" xmlns:xlink="http://www.w3.org/1999/xlink" x="0px" y="0px"
	 width="612px" height="792px" viewBox="0 0 612 792" enable-background="new 0 0 612 792" xml:space="preserve">
<g>
	<polygon fill="#FFFFFF" stroke="#D1D3D4" stroke-miterlimit="10" points="386.534,442.609 305.82,489.207 225.105,442.609 
		225.105,349.406 305.82,302.805 386.534,349.406 	"/>
	<polygon fill="#662D91" points="379.618,438.612 305.82,481.219 232.024,438.612 232.024,353.399 305.82,310.793 379.618,353.399 	
		"/>
	<g>
		<path fill="#CC3937" d="M237.097,369.207v45.906h38.212v7.696h30.512v-7.696h68.726v-45.906H237.097L237.097,369.207z"/>
		<path fill="#FFFFFF" d="M259.917,376.902h-15.126v7.695v22.819h15.126v-22.819h7.692v22.819h7.699v-22.819v-7.695H259.917
			L259.917,376.902z"/>
		<path fill="#FFFFFF" d="M283.003,376.902v28.924v1.59v7.696h15.389v-7.696h15.125v-30.514H283.003L283.003,376.902z
			 M305.82,399.722h-7.429v-15.125h7.429V399.722L305.82,399.722z"/>
		<path fill="#FFFFFF" d="M336.336,376.902h-15.123v7.695v22.819h15.123v-22.819h7.696v22.819h7.693v-22.819h7.695v22.819h7.696
			v-22.819v-7.165v-0.53H336.336L336.336,376.902z"/>
	</g>
</g>
</svg>
