<?xml version="1.0" encoding="utf-8"?>
<!-- Generator: Adobe Illustrator 15.0.0, SVG Export Plug-In . SVG Version: 6.00 Build 0)  -->
<!DOCTYPE svg PUBLIC "-//W3C//DTD SVG 1.1//EN" "http://www.w3.org/Graphics/SVG/1.1/DTD/svg11.dtd">
<svg version="1.1" id="Layer_1" xmlns="http://www.w3.org/2000/svg" xmlns:xlink="http://www.w3.org/1999/xlink" x="0px" y="0px"
	 width="612px" height="792px" viewBox="0 0 612 792" enable-background="new 0 0 612 792" xml:space="preserve">
<g>
	<polygon fill="#FFFFFF" stroke="#D1D3D4" stroke-miterlimit="10" points="386.839,442.607 306.124,489.208 225.408,442.607 
		225.408,349.406 306.124,302.806 386.839,349.406 	"/>
	<g>
		<polygon stroke="#D1D3D4" stroke-miterlimit="10" points="379.919,438.613 306.124,481.218 232.328,438.613 232.328,353.4 
			306.124,310.795 379.919,353.4 		"/>
		<path d="M236.652,395.783c0,10.493,10.246,20.288,26.399,25.81c-3.224,16.239-0.576,29.328,8.265,34.428
			c9.092,5.241,22.633,1.612,35.487-9.622c12.528,10.783,25.192,15.025,34.026,9.909c9.082-5.256,11.845-19.233,8.53-35.979
			c16.824-5.564,26.235-13.916,26.235-24.546c0-10.251-10.264-19.117-26.201-24.604c3.569-17.438,0.547-30.209-8.664-35.52
			c-8.88-5.122-21.689-0.658-34.402,10.405c-13.228-11.742-25.91-15.33-35.111-10.002c-8.869,5.135-11.4,18.462-8.166,35.003
			C247.444,376.504,236.652,385.575,236.652,395.783z"/>
		<path fill="#00AEEF" d="M345.883,376.699c-1.283-0.443-2.608-0.86-3.971-1.255c0.224-0.914,0.427-1.819,0.611-2.707
			c3.007-14.598,1.04-26.354-5.673-30.226c-6.436-3.713-16.966,0.156-27.599,9.409c-1.021,0.892-2.046,1.832-3.07,2.819
			c-0.685-0.652-1.364-1.284-2.044-1.888c-11.146-9.895-22.313-14.063-29.022-10.18c-6.429,3.722-8.334,14.775-5.628,28.61
			c0.262,1.335,0.567,2.698,0.914,4.086c-1.581,0.448-3.108,0.926-4.569,1.437c-13.062,4.556-21.407,11.692-21.407,19.096
			c0,7.648,8.957,15.32,22.565,19.97c1.071,0.366,2.187,0.716,3.334,1.044c-0.371,1.5-0.696,2.971-0.969,4.405
			c-2.579,13.593-0.565,24.386,5.851,28.085c6.624,3.82,17.742-0.108,28.57-9.571c0.854-0.748,1.715-1.541,2.573-2.373
			c1.116,1.074,2.228,2.09,3.337,3.043c10.487,9.025,20.846,12.669,27.253,8.959c6.617-3.831,8.769-15.427,5.978-29.532
			c-0.215-1.079-0.464-2.179-0.741-3.299c0.78-0.23,1.548-0.469,2.295-0.715c14.146-4.688,23.35-12.265,23.35-20.016
			C367.821,388.472,359.209,381.284,345.883,376.699L345.883,376.699L345.883,376.699z"/>
		<path d="M342.813,410.912c-0.675,0.223-1.367,0.439-2.072,0.648c-1.562-4.942-3.669-10.199-6.25-15.63
			c2.461-5.303,4.49-10.493,6.006-15.406c1.265,0.367,2.49,0.752,3.668,1.157c11.419,3.931,18.386,9.743,18.386,14.222
			C362.551,400.674,355.027,406.865,342.813,410.912L342.813,410.912L342.813,410.912z M337.745,420.956
			c1.236,6.235,1.41,11.876,0.596,16.286c-0.737,3.96-2.216,6.602-4.043,7.661c-3.889,2.249-12.205-0.678-21.174-8.395
			c-1.027-0.884-2.063-1.829-3.102-2.828c3.477-3.803,6.953-8.224,10.343-13.135c5.966-0.527,11.602-1.395,16.713-2.575
			C337.329,418.984,337.555,419.983,337.745,420.956L337.745,420.956L337.745,420.956z M286.493,444.514
			c-3.799,1.342-6.824,1.379-8.651,0.324c-3.894-2.243-5.511-10.91-3.304-22.535c0.25-1.329,0.553-2.697,0.899-4.097
			c5.056,1.118,10.65,1.922,16.63,2.406c3.414,4.805,6.986,9.221,10.591,13.086c-0.787,0.762-1.57,1.485-2.351,2.167
			C295.521,440.05,290.723,443.02,286.493,444.514L286.493,444.514L286.493,444.514z M268.696,410.884
			c-6.019-2.057-10.987-4.732-14.392-7.646c-3.061-2.619-4.606-5.224-4.606-7.335c0-4.493,6.699-10.225,17.871-14.119
			c1.356-0.473,2.774-0.92,4.248-1.337c1.543,5.024,3.57,10.274,6.015,15.585c-2.478,5.389-4.532,10.724-6.09,15.805
			C270.69,411.537,269.673,411.219,268.696,410.884L268.696,410.884L268.696,410.884z M274.663,370.269
			c-2.321-11.851-0.78-20.792,3.094-23.036c4.131-2.389,13.255,1.02,22.877,9.562c0.616,0.547,1.232,1.118,1.853,1.71
			c-3.585,3.85-7.128,8.232-10.512,13.009c-5.803,0.537-11.358,1.401-16.467,2.558C275.188,372.78,274.903,371.511,274.663,370.269
			L274.663,370.269L274.663,370.269z M327.889,383.413c-1.222-2.108-2.477-4.169-3.753-6.171c3.938,0.496,7.711,1.158,11.252,1.968
			c-1.062,3.407-2.389,6.97-3.95,10.623C330.319,387.71,329.134,385.565,327.889,383.413L327.889,383.413L327.889,383.413z
			 M306.184,362.271c2.432,2.634,4.866,5.575,7.261,8.767c-2.414-0.115-4.858-0.173-7.32-0.173c-2.441,0-4.867,0.058-7.266,0.169
			C301.257,367.873,303.713,364.938,306.184,362.271L306.184,362.271L306.184,362.271z M284.338,383.448
			c-1.219,2.117-2.382,4.248-3.485,6.383c-1.534-3.642-2.848-7.221-3.922-10.679c3.523-0.786,7.277-1.432,11.19-1.919
			C286.826,379.255,285.561,381.329,284.338,383.448L284.338,383.448L284.338,383.448z M288.231,414.95
			c-4.04-0.451-7.85-1.062-11.37-1.826c1.089-3.521,2.432-7.175,4.001-10.896c1.103,2.133,2.271,4.266,3.496,6.385l0,0
			C285.609,410.772,286.902,412.886,288.231,414.95L288.231,414.95L288.231,414.95z M306.328,429.906
			c-2.499-2.696-4.989-5.677-7.424-8.883c2.364,0.092,4.771,0.14,7.22,0.14c2.516,0,5.002-0.057,7.449-0.166
			C311.171,424.263,308.743,427.248,306.328,429.906L306.328,429.906L306.328,429.906z M331.487,402.039
			c1.65,3.76,3.041,7.396,4.146,10.854c-3.58,0.816-7.442,1.475-11.512,1.961c1.281-2.03,2.546-4.122,3.788-6.279
			C329.166,406.396,330.359,404.215,331.487,402.039L331.487,402.039L331.487,402.039z M323.343,405.943
			c-1.929,3.345-3.909,6.539-5.918,9.55c-3.663,0.262-7.446,0.397-11.301,0.397c-3.841,0-7.574-0.118-11.174-0.354
			c-2.092-3.053-4.112-6.254-6.03-9.565l0,0c-1.912-3.301-3.671-6.63-5.266-9.941c1.595-3.318,3.348-6.651,5.249-9.947l0,0
			c1.906-3.305,3.912-6.491,5.983-9.525c3.669-0.276,7.435-0.421,11.237-0.421l0,0c3.819,0,7.588,0.145,11.258,0.425
			c2.04,3.011,4.03,6.189,5.944,9.493c1.935,3.341,3.712,6.652,5.319,9.898C327.042,399.258,325.27,402.602,323.343,405.943
			L323.343,405.943L323.343,405.943z M334.216,347.078c4.135,2.383,5.74,11.992,3.146,24.595c-0.168,0.806-0.354,1.625-0.557,2.453
			c-5.118-1.18-10.677-2.059-16.497-2.605c-3.393-4.828-6.904-9.218-10.433-13.02c0.946-0.912,1.894-1.78,2.839-2.602
			C321.824,347.972,330.339,344.842,334.216,347.078L334.216,347.078L334.216,347.078z"/>
		<path fill="#00AEEF" d="M306.192,384.39c6.085,0,11.02,4.934,11.02,11.018c0,6.086-4.935,11.02-11.02,11.02
			s-11.018-4.934-11.018-11.02C295.175,389.323,300.107,384.39,306.192,384.39"/>
	</g>
</g>
</svg>
